<svg width="949" height="366" viewBox="0 0 949 366" fill="none" xmlns="http://www.w3.org/2000/svg">
<path d="M946.528 37.6369C948.829 45.1169 947.848 53.4533 943.8 62.5065C939.75 71.5637 932.644 81.31 922.745 91.5735C902.947 112.1 872.055 134.621 832.394 157.761C753.08 204.036 638.796 252.729 508.342 292.861C377.888 332.994 255.995 356.957 164.385 363.263C118.576 366.417 80.3678 365.154 52.4557 359.304C38.4995 356.379 27.1433 352.313 18.7033 347.098C10.2669 341.885 4.76953 335.542 2.4684 328.062C0.167283 320.582 1.14869 312.245 5.19636 303.192C9.2458 294.135 16.3528 284.389 26.2517 274.125C46.0495 253.598 76.9412 231.077 116.602 207.938C195.916 161.662 310.201 112.969 440.655 72.8372C571.109 32.7051 693.001 8.74201 784.611 2.43522C830.42 -0.71848 868.629 0.544868 896.541 6.39456C910.497 9.31945 921.853 13.3858 930.293 18.6008C938.729 23.8135 944.227 30.1568 946.528 37.6369Z" stroke="white"/>
</svg>
