<svg width="66" height="43" viewBox="0 0 66 43" fill="none" xmlns="http://www.w3.org/2000/svg">
<path d="M42.246 13.3143C44.144 15.5009 45.2962 18.3621 45.2962 21.5C45.2962 28.3606 39.7909 33.9216 32.9991 33.9216C29.8944 33.9216 27.0601 32.7577 24.8954 30.8405L42.2441 13.316L42.246 13.3143ZM32.9991 9.07656C26.2073 9.07656 20.702 14.6376 20.702 21.4982C20.702 24.6343 21.8542 27.4972 23.7522 29.6821L41.101 12.1577C38.9362 10.2405 36.1038 9.07656 32.9991 9.07656ZM65.9982 21.4982C65.9982 24.5298 65.0383 27.4148 63.3326 30.0028C61.627 32.5909 59.1846 34.8931 56.1943 36.8139C50.2118 40.6557 42.0264 42.9982 32.9991 43C32.7305 43 32.462 42.9945 32.1953 42.9908C26.249 42.8992 20.6929 41.7884 15.9171 39.9097L13.1953 42.6591C12.8796 42.978 12.3679 42.978 12.0521 42.6591C11.7364 42.3401 11.7364 41.8232 12.0521 41.5043L14.3021 39.2315C9.23234 36.9624 5.16235 33.7933 2.66555 30.0047C0.961703 27.4184 0 24.5316 0 21.5018C0 18.4702 0.959888 15.5852 2.66555 12.9971C4.37121 10.4072 6.81357 8.10695 9.80392 6.18606C15.7864 2.34429 23.9718 0.00183291 33.0009 0C33.2695 0 33.538 0.00550767 33.8047 0.00917348C39.751 0.102652 45.3071 1.21157 50.0829 3.0903L52.8446 0.300622C53.1604 -0.018304 53.6721 -0.018304 53.9878 0.300622C54.3035 0.619547 54.3035 1.13639 53.9878 1.45532L51.6979 3.76847C56.7677 6.0376 60.8377 9.20667 63.3344 12.9953C65.0383 15.5815 66 18.4684 66 21.5L65.9982 21.4982ZM49.4061 6.08157L48.6113 6.88441C52.1315 10.7207 54.2854 15.8546 54.2854 21.4982C54.2854 28.6868 50.7924 35.0488 45.4286 38.9529C47.6714 38.02 49.7109 36.8433 51.4892 35.4741C56.1925 31.8449 59.0322 26.9089 59.0322 21.4982C59.0322 16.0874 56.1925 11.1514 51.4892 7.52042C50.8305 7.0127 50.1337 6.53246 49.4061 6.07974V6.08157ZM14.5108 7.52225C9.80755 11.1514 6.9678 16.0874 6.9678 21.5C6.9678 26.9107 9.80755 31.8468 14.5108 35.4759C15.1695 35.9836 15.8663 36.4638 16.5939 36.9165L17.3887 36.1138C13.8685 32.2775 11.7146 27.1435 11.7146 21.5C11.7146 14.3113 15.2076 7.94749 20.5714 4.0434C18.3286 4.97635 16.2891 6.15307 14.5108 7.52225ZM14.6995 37.6241C14.3003 37.3491 13.9084 37.0669 13.5292 36.7755C8.51742 32.919 5.34924 27.5119 5.34924 21.5C5.34924 15.4881 8.51742 10.081 13.5292 6.22454C13.903 5.93678 14.2894 5.65821 14.6832 5.38694C9.95997 7.54793 6.24018 10.5136 4.01193 13.9026C2.45869 16.2652 1.61856 18.8203 1.61675 21.5018C1.61675 24.1815 2.45869 26.7384 4.01193 29.1011C5.56517 31.4618 7.83697 33.6174 10.6713 35.4393C11.9106 36.2366 13.2588 36.9697 14.6995 37.6277V37.6241ZM33.0009 41.3669C38.4354 41.3669 43.3474 39.1435 46.9093 35.5474C50.4694 31.9494 52.6704 26.9877 52.6704 21.4982C52.6704 16.3037 50.698 11.5803 47.4682 8.03915L45.6428 9.88302C45.327 10.2019 44.8153 10.2019 44.4996 9.88302C44.1839 9.56409 44.1839 9.04725 44.4996 8.72832L46.325 6.88441C42.8193 3.62183 38.1451 1.63131 33.0009 1.62948C27.5664 1.62948 22.6544 3.85279 19.0925 7.44896C15.5324 11.047 13.3314 16.0086 13.3314 21.4982C13.3314 26.6926 15.3038 31.4142 18.5336 34.9553L20.399 33.073C20.7147 32.754 21.2264 32.754 21.5421 33.073C21.8579 33.3919 21.8579 33.9088 21.5421 34.2277L19.6786 36.1101C23.1843 39.3727 27.8585 41.3632 33.0027 41.3632L33.0009 41.3669ZM64.3814 21.5C64.3814 18.8185 63.5395 16.2634 61.9863 13.9008C60.433 11.54 58.1612 9.38448 55.3269 7.56257C54.0876 6.76526 52.7394 6.03211 51.2987 5.37409C51.6979 5.64903 52.0898 5.93128 52.469 6.22271C57.4808 10.0791 60.6489 15.4862 60.6489 21.4982C60.6489 27.5101 57.4808 32.9172 52.469 36.7736C52.0952 37.0614 51.7087 37.34 51.315 37.6112C56.0382 35.4502 59.758 32.4864 61.9844 29.0974C63.5377 26.7348 64.3778 24.1779 64.3796 21.4982L64.3814 21.5Z" fill="url(#paint0_linear_316_375)"/>
<defs>
<linearGradient id="paint0_linear_316_375" x1="38.3514" y1="21.5" x2="2.59257" y2="42.8609" gradientUnits="userSpaceOnUse">
<stop stop-color="white"/>
<stop offset="1" stop-color="#6AADFB"/>
</linearGradient>
</defs>
</svg>
