<svg width="1358" height="87" viewBox="0 0 1358 87" fill="none" xmlns="http://www.w3.org/2000/svg">
<path opacity="0.8" d="M112.503 53.964C112.503 58.122 106.869 58.122 106.347 61.056H112.269V63H103.899V61.812C103.899 56.988 110.307 57.222 110.307 54.036C110.307 52.866 109.497 52.074 108.255 52.074C106.941 52.074 105.915 52.956 105.879 54.576H103.611C103.809 51.732 105.753 50.13 108.291 50.13C110.811 50.13 112.503 51.678 112.503 53.964ZM122.461 63.27C119.059 63.27 117.007 60.552 117.007 56.664C117.007 52.65 119.149 50.13 122.497 50.13C125.053 50.13 126.907 51.732 127.123 54.144H124.909C124.783 52.92 123.775 52.074 122.461 52.074C120.373 52.074 119.131 53.802 119.023 56.358V56.97C119.563 55.584 120.985 54.522 122.875 54.522C125.305 54.522 127.033 56.268 127.033 58.806C127.033 61.434 125.161 63.27 122.461 63.27ZM122.353 61.326C123.595 61.326 124.837 60.498 124.837 58.806C124.837 57.114 123.613 56.304 122.371 56.304C121.111 56.304 119.815 57.168 119.815 58.824C119.815 60.48 121.075 61.326 122.353 61.326ZM134.173 55.962C132.427 55.962 131.365 54.684 131.365 53.208C131.365 51.75 132.427 50.49 134.173 50.49C135.919 50.49 136.981 51.75 136.981 53.208C136.981 54.684 135.919 55.962 134.173 55.962ZM134.173 54.558C134.947 54.558 135.451 53.946 135.451 53.226C135.451 52.506 134.947 51.894 134.173 51.894C133.399 51.894 132.895 52.506 132.895 53.226C132.895 53.946 133.399 54.558 134.173 54.558ZM146.162 63H144.002V53.622C143.408 54.45 142.454 54.882 141.158 54.882H141.014V52.812H141.158C143.03 52.812 144.02 52.038 144.02 50.58V50.4H146.162V63ZM156.095 63H153.935V53.622C153.341 54.45 152.387 54.882 151.091 54.882H150.947V52.812H151.091C152.963 52.812 153.953 52.038 153.953 50.58V50.4H156.095V63ZM163.616 50.148H166.064L163.022 54.792H161.294L163.616 50.148ZM174.537 63H172.377V53.622C171.783 54.45 170.829 54.882 169.533 54.882H169.389V52.812H169.533C171.405 52.812 172.395 52.038 172.395 50.58V50.4L174.537 50.4V63ZM187.764 63H185.604V60.192H179.484V58.284L185.586 50.4H187.764V58.248H189.942V60.192H187.764V63ZM185.604 53.352L181.824 58.248H185.604V53.352ZM200.469 50.148H202.917L199.875 54.792H198.147L200.469 50.148ZM196.491 50.148H198.939L195.897 54.792H194.169L196.491 50.148ZM209.315 63H207.155V50.4H209.495L215.741 59.886V50.4H217.901V63H215.561L209.315 53.514V63ZM226.058 60.336L224.006 66.582L222.368 66.078L224.348 59.814L226.058 60.336ZM249.181 63.27C246.535 63.27 244.681 61.722 244.411 59.346H246.607C246.805 60.588 247.777 61.326 249.199 61.326C250.999 61.326 252.043 59.814 252.133 57.168C252.151 56.952 252.151 56.736 252.133 56.52C251.827 57.816 250.621 58.77 248.857 58.77C246.247 58.77 244.411 56.988 244.411 54.468C244.411 51.912 246.319 50.13 248.983 50.13C252.259 50.13 254.131 52.758 254.131 56.772C254.131 60.768 252.295 63.27 249.181 63.27ZM249.073 56.952C250.405 56.952 251.557 56.07 251.557 54.504C251.557 52.92 250.423 52.038 249.091 52.038C247.741 52.038 246.571 52.938 246.553 54.486C246.553 56.052 247.723 56.952 249.073 56.952ZM263.476 63H261.316V53.622C260.722 54.45 259.768 54.882 258.472 54.882H258.328V52.812H258.472C260.344 52.812 261.334 52.038 261.334 50.58V50.4H263.476V63ZM271.213 55.962C269.467 55.962 268.405 54.684 268.405 53.208C268.405 51.75 269.467 50.49 271.213 50.49C272.959 50.49 274.021 51.75 274.021 53.208C274.021 54.684 272.959 55.962 271.213 55.962ZM271.213 54.558C271.987 54.558 272.491 53.946 272.491 53.226C272.491 52.506 271.987 51.894 271.213 51.894C270.439 51.894 269.935 52.506 269.935 53.226C269.935 53.946 270.439 54.558 271.213 54.558ZM286.496 63H284.336V60.192H278.216V58.284L284.318 50.4H286.496V58.248H288.674V60.192H286.496V63ZM284.336 53.352L280.556 58.248H284.336V53.352ZM297.002 63H294.842V53.622C294.248 54.45 293.294 54.882 291.998 54.882H291.854V52.812H291.998C293.87 52.812 294.86 52.038 294.86 50.58V50.4H297.002V63ZM304.523 50.148H306.971L303.929 54.792H302.201L304.523 50.148ZM315.57 63.288C312.6 63.288 310.566 61.65 310.422 58.986H312.636C312.762 60.444 313.896 61.326 315.57 61.326C317.118 61.326 318.09 60.552 318.09 59.364C318.09 58.194 317.136 57.474 315.552 57.474H313.59V55.692H315.552C316.83 55.692 317.604 54.882 317.604 53.892C317.604 52.848 316.758 52.074 315.498 52.074C314.22 52.074 313.248 52.884 313.086 54.126H310.854C311.106 51.714 312.978 50.13 315.57 50.13C318.018 50.13 319.764 51.534 319.764 53.496C319.764 54.99 318.738 56.142 317.226 56.466C319.08 56.808 320.196 57.996 320.196 59.67C320.196 61.812 318.36 63.288 315.57 63.288ZM329.618 63.27C326.612 63.27 324.614 60.678 324.614 56.664C324.614 52.74 326.558 50.13 329.618 50.13C332.606 50.13 334.604 52.686 334.604 56.664C334.604 60.606 332.66 63.27 329.618 63.27ZM329.618 61.272C331.328 61.272 332.426 59.472 332.426 56.664C332.426 53.892 331.328 52.11 329.618 52.11C327.89 52.11 326.792 53.892 326.792 56.664C326.792 59.472 327.89 61.272 329.618 61.272ZM345.525 50.148H347.973L344.931 54.792H343.203L345.525 50.148ZM341.547 50.148H343.995L340.953 54.792H339.225L341.547 50.148ZM361.192 63L352.21 63V50.4L361.03 50.4V52.344L354.352 52.344V55.584L360.4 55.584V57.474L354.352 57.474V61.056L361.192 61.056V63Z" fill="white"/>
<path opacity="0.8" d="M109.785 34H107.625V23.344H103.413V21.4H113.979V23.344H109.785V34ZM117.966 34H115.806V21.4L117.966 21.4V26.584L124.878 26.584V21.4H127.038V34H124.878V28.528L117.966 28.528V34ZM138.622 34L129.64 34V21.4L138.46 21.4V23.344L131.782 23.344V26.584L137.83 26.584V28.474L131.782 28.474V32.056L138.622 32.056V34ZM152.862 24.964C152.862 29.122 147.228 29.122 146.706 32.056H152.628V34H144.258V32.812C144.258 27.988 150.666 28.222 150.666 25.036C150.666 23.866 149.856 23.074 148.614 23.074C147.3 23.074 146.274 23.956 146.238 25.576H143.97C144.168 22.732 146.112 21.13 148.65 21.13C151.17 21.13 152.862 22.678 152.862 24.964ZM159.15 34.288C156.522 34.288 154.578 32.704 154.254 30.148H156.54C156.738 31.462 157.8 32.308 159.168 32.308C160.698 32.308 161.616 31.228 161.616 29.86C161.616 28.528 160.716 27.43 159.204 27.43C158.376 27.43 157.674 27.754 157.026 28.438H154.614L155.73 21.4H163.218V23.362H157.512L156.954 26.944C157.638 26.188 158.628 25.666 159.87 25.666C162.174 25.666 163.794 27.394 163.794 29.842C163.794 32.47 161.904 34.288 159.15 34.288ZM171.378 34H169.218V23.344H165.006V21.4H175.572V23.344H171.378V34ZM179.56 34H177.4V21.4H179.56V26.584H186.472V21.4H188.632V34H186.472V28.528H179.56V34ZM204.136 34H195.154V21.4H203.974V23.344H197.296V26.584H203.344V28.474H197.296V32.056H204.136V34ZM210.694 34H206.158V21.4H210.694C214.438 21.4 217.048 23.956 217.048 27.628C217.048 31.39 214.438 34 210.694 34ZM208.318 23.344V32.056H210.838C213.178 32.056 214.816 30.238 214.816 27.628C214.816 25.162 213.178 23.344 210.838 23.344H208.318ZM221.255 34H219.095V21.4H221.255V34ZM229.439 34H227.279V23.344H223.067V21.4L233.633 21.4V23.344H229.439V34ZM237.62 34H235.46V21.4H237.62V34ZM245.93 34.27C242.204 34.27 239.648 31.678 239.648 27.664C239.648 23.848 242.06 21.13 245.93 21.13C249.674 21.13 252.248 23.704 252.248 27.664C252.248 31.516 249.818 34.27 245.93 34.27ZM245.93 32.308C248.45 32.308 250.052 30.508 250.052 27.664C250.052 24.856 248.45 23.074 245.93 23.074C243.428 23.074 241.844 24.856 241.844 27.664C241.844 30.508 243.428 32.308 245.93 32.308ZM256.447 34L254.287 34V21.4H256.627L262.873 30.886V21.4H265.033V34H262.693L256.447 24.514V34Z" fill="white"/>
<g opacity="0.8">
<path d="M592.291 36H590.779V24.786H586.423V23.4H596.647V24.786H592.291V36ZM600.044 36H598.55V22.5H600.044V27.684C600.728 26.82 601.898 26.244 603.194 26.244C605.246 26.244 606.614 27.576 606.614 29.682V36H605.12V29.736C605.12 28.404 604.256 27.558 602.906 27.558C601.106 27.558 600.062 28.746 600.044 30.204V36ZM613.167 36.198C610.341 36.198 608.469 34.128 608.469 31.266C608.469 28.008 610.575 26.244 612.987 26.244C615.615 26.244 617.307 28.008 617.361 31.068V31.482H609.963C610.053 33.516 611.241 34.902 613.167 34.902C614.499 34.902 615.471 34.236 615.867 32.994H617.325C616.893 34.956 615.345 36.198 613.167 36.198ZM610.053 30.24H615.795C615.525 28.566 614.517 27.54 612.987 27.54C611.475 27.54 610.359 28.53 610.053 30.24ZM624.215 36H622.649L627.833 23.4H629.363L634.565 36H632.999L631.523 32.4H625.691L624.215 36ZM628.607 25.326L626.267 31.032H630.947L628.607 25.326ZM637.783 36H636.289V26.46H637.477L637.621 27.918C638.269 26.91 639.511 26.244 640.933 26.244C642.985 26.244 644.353 27.576 644.353 29.682V36H642.859V29.736C642.859 28.404 641.995 27.558 640.555 27.558C638.845 27.558 637.801 28.746 637.783 30.204V36ZM648.189 36H646.695V26.46H647.883L648.027 27.918C648.675 26.91 649.917 26.244 651.339 26.244C653.391 26.244 654.759 27.576 654.759 29.682V36H653.265V29.736C653.265 28.404 652.401 27.558 650.961 27.558C649.251 27.558 648.207 28.746 648.189 30.204V36ZM660.575 36.198C658.253 36.198 656.921 34.776 656.921 32.832V26.46H658.415V32.778C658.415 34.146 659.369 34.884 660.719 34.884C662.501 34.884 663.473 33.696 663.491 32.256V26.46H664.985V36H663.797L663.671 34.56C663.041 35.64 661.889 36.198 660.575 36.198ZM670.515 36.144C668.355 36.144 666.969 35.028 666.969 33.282C666.969 31.086 669.093 30.672 671.001 30.474C672.459 30.33 673.719 30.348 673.737 29.574C673.719 28.368 672.729 27.522 671.289 27.522C669.903 27.522 668.823 28.296 668.661 29.43H667.185C667.365 27.558 669.057 26.244 671.325 26.244C673.683 26.244 675.195 27.648 675.195 29.664V34.308C675.195 34.614 675.357 34.776 675.681 34.776H676.221V36H675.375C674.349 36 673.809 35.532 673.809 34.65V34.362C673.251 35.46 672.171 36.144 670.515 36.144ZM670.731 34.866C672.513 34.866 673.737 33.732 673.737 32.148V30.906C673.323 31.464 672.261 31.572 671.091 31.698C669.777 31.842 668.463 32.022 668.463 33.246C668.463 34.236 669.363 34.866 670.731 34.866ZM679.444 36H677.95V22.5H679.444V36ZM691.256 36H689.744V24.786H685.388V23.4H695.612V24.786H691.256V36ZM699.879 36.198C697.053 36.198 695.181 34.128 695.181 31.266C695.181 28.008 697.287 26.244 699.699 26.244C702.327 26.244 704.019 28.008 704.073 31.068V31.482H696.675C696.765 33.516 697.953 34.902 699.879 34.902C701.211 34.902 702.183 34.236 702.579 32.994H704.037C703.605 34.956 702.057 36.198 699.879 36.198ZM696.765 30.24H702.507C702.237 28.566 701.229 27.54 699.699 27.54C698.187 27.54 697.071 28.53 696.765 30.24ZM710.305 36.198C707.209 36.198 705.553 33.93 705.553 31.176C705.553 27.972 707.659 26.244 710.251 26.244C712.645 26.244 714.355 27.684 714.625 30.132H713.167C712.915 28.548 711.817 27.54 710.215 27.54C708.325 27.54 707.065 28.926 707.065 31.176C707.065 33.606 708.541 34.902 710.323 34.902C711.853 34.902 712.897 33.93 713.167 32.274H714.625C714.355 34.74 712.771 36.198 710.305 36.198ZM718.133 36H716.639V22.5H718.133V27.684C718.817 26.82 719.987 26.244 721.283 26.244C723.335 26.244 724.703 27.576 724.703 29.682V36H723.209V29.736C723.209 28.404 722.345 27.558 720.995 27.558C719.195 27.558 718.151 28.746 718.133 30.204V36ZM728.538 36H727.044V26.46H728.232L728.376 27.918C729.024 26.91 730.266 26.244 731.688 26.244C733.74 26.244 735.108 27.576 735.108 29.682V36H733.614V29.736C733.614 28.404 732.75 27.558 731.31 27.558C729.6 27.558 728.556 28.746 728.538 30.204V36ZM741.645 36.198C738.585 36.198 736.965 34.02 736.965 31.14C736.965 27.954 739.053 26.244 741.645 26.244C744.687 26.244 746.325 28.44 746.325 31.14C746.325 34.434 744.327 36.198 741.645 36.198ZM741.645 34.902C743.679 34.902 744.795 33.21 744.795 31.14C744.795 28.998 743.553 27.54 741.645 27.54C739.737 27.54 738.495 28.998 738.495 31.14C738.495 33.588 739.917 34.902 741.645 34.902ZM755.569 31.032H747.865V29.772H755.569V31.032ZM759.413 36H757.901V23.4H759.791L764.237 34.2L768.665 23.4H770.573V36H769.061V26.028L764.957 36H763.499L759.413 26.064V36ZM776.406 36.144C774.246 36.144 772.86 35.028 772.86 33.282C772.86 31.086 774.984 30.672 776.892 30.474C778.35 30.33 779.61 30.348 779.628 29.574C779.61 28.368 778.62 27.522 777.18 27.522C775.794 27.522 774.714 28.296 774.552 29.43H773.076C773.256 27.558 774.948 26.244 777.216 26.244C779.574 26.244 781.086 27.648 781.086 29.664V34.308C781.086 34.614 781.248 34.776 781.572 34.776H782.112V36H781.266C780.24 36 779.7 35.532 779.7 34.65V34.362C779.142 35.46 778.062 36.144 776.406 36.144ZM776.622 34.866C778.404 34.866 779.628 33.732 779.628 32.148V30.906C779.214 31.464 778.152 31.572 776.982 31.698C775.668 31.842 774.354 32.022 774.354 33.246C774.354 34.236 775.254 34.866 776.622 34.866ZM785.281 36H783.787V26.46H784.975L785.119 27.918C785.767 26.91 787.009 26.244 788.431 26.244C790.483 26.244 791.851 27.576 791.851 29.682V36H790.357V29.736C790.357 28.404 789.493 27.558 788.053 27.558C786.343 27.558 785.299 28.746 785.281 30.204V36ZM797.271 36.144C795.111 36.144 793.725 35.028 793.725 33.282C793.725 31.086 795.849 30.672 797.757 30.474C799.215 30.33 800.475 30.348 800.493 29.574C800.475 28.368 799.485 27.522 798.045 27.522C796.659 27.522 795.579 28.296 795.417 29.43H793.941C794.121 27.558 795.813 26.244 798.081 26.244C800.439 26.244 801.951 27.648 801.951 29.664V34.308C801.951 34.614 802.113 34.776 802.437 34.776H802.977V36H802.131C801.105 36 800.565 35.532 800.565 34.65V34.362C800.007 35.46 798.927 36.144 797.271 36.144ZM797.487 34.866C799.269 34.866 800.493 33.732 800.493 32.148V30.906C800.079 31.464 799.017 31.572 797.847 31.698C796.533 31.842 795.219 32.022 795.219 33.246C795.219 34.236 796.119 34.866 797.487 34.866ZM808.81 39.816C806.236 39.816 804.49 38.574 804.49 36.558H805.984C805.984 37.692 807.136 38.556 808.81 38.556C810.772 38.556 811.798 37.386 811.798 35.748V34.2C811.132 35.19 809.98 35.838 808.522 35.838C805.984 35.838 804.166 33.894 804.166 31.086C804.166 28.224 806.002 26.244 808.522 26.244C810.052 26.244 811.294 26.964 811.942 28.116L812.104 26.46H813.274V35.748C813.274 38.16 811.654 39.816 808.81 39.816ZM808.738 34.542C810.538 34.542 811.798 33.102 811.798 31.032C811.798 28.98 810.538 27.54 808.738 27.54C806.956 27.54 805.714 28.98 805.714 31.068C805.714 33.12 806.956 34.542 808.738 34.542ZM819.938 36.198C817.112 36.198 815.24 34.128 815.24 31.266C815.24 28.008 817.346 26.244 819.758 26.244C822.386 26.244 824.078 28.008 824.132 31.068V31.482H816.734C816.824 33.516 818.012 34.902 819.938 34.902C821.27 34.902 822.242 34.236 822.638 32.994H824.096C823.664 34.956 822.116 36.198 819.938 36.198ZM816.824 30.24H822.566C822.296 28.566 821.288 27.54 819.758 27.54C818.246 27.54 817.13 28.53 816.824 30.24ZM827.591 36H826.097V26.46H827.285L827.429 27.936C828.077 26.91 829.319 26.244 830.687 26.244C832.127 26.244 833.207 26.982 833.693 28.134C834.305 27.018 835.619 26.244 837.077 26.244C839.093 26.244 840.389 27.666 840.389 29.61V36H838.895V29.664C838.895 28.386 838.103 27.558 836.825 27.558C835.043 27.558 833.999 28.746 833.981 30.204V36H832.505V29.664C832.505 28.386 831.713 27.558 830.435 27.558C828.653 27.558 827.609 28.746 827.591 30.204V36ZM846.938 36.198C844.112 36.198 842.24 34.128 842.24 31.266C842.24 28.008 844.346 26.244 846.758 26.244C849.386 26.244 851.078 28.008 851.132 31.068V31.482H843.734C843.824 33.516 845.012 34.902 846.938 34.902C848.27 34.902 849.242 34.236 849.638 32.994H851.096C850.664 34.956 849.116 36.198 846.938 36.198ZM843.824 30.24H849.566C849.296 28.566 848.288 27.54 846.758 27.54C845.246 27.54 844.13 28.53 843.824 30.24ZM854.591 36H853.097V26.46H854.285L854.429 27.918C855.077 26.91 856.319 26.244 857.741 26.244C859.793 26.244 861.161 27.576 861.161 29.682V36H859.667V29.736C859.667 28.404 858.803 27.558 857.363 27.558C855.653 27.558 854.609 28.746 854.591 30.204V36ZM868.296 36H867.234C865.38 36 864.39 35.046 864.39 33.282V27.72H862.626V26.46H864.39V23.202H865.884V26.46H868.458V27.72H865.884V33.282C865.884 34.236 866.352 34.74 867.234 34.74H868.296V36ZM876.817 36H875.323V27.72H873.559V26.46H875.323V25.128C875.323 23.418 876.277 22.5 878.041 22.5H880.165V23.76H878.041C877.249 23.76 876.817 24.246 876.817 25.128V26.46H879.913V27.72H876.817V36ZM885.452 36.198C882.626 36.198 880.754 34.128 880.754 31.266C880.754 28.008 882.86 26.244 885.272 26.244C887.9 26.244 889.592 28.008 889.646 31.068V31.482H882.248C882.338 33.516 883.526 34.902 885.452 34.902C886.784 34.902 887.756 34.236 888.152 32.994H889.61C889.178 34.956 887.63 36.198 885.452 36.198ZM882.338 30.24H888.08C887.81 28.566 886.802 27.54 885.272 27.54C883.76 27.54 882.644 28.53 882.338 30.24ZM895.175 36.198C892.907 36.198 891.233 35.01 891.107 32.994H892.565C892.673 34.236 893.807 34.92 895.247 34.92C896.597 34.92 897.245 34.398 897.245 33.444C897.245 32.544 896.543 32.346 895.553 32.004L894.167 31.536C892.763 31.068 891.359 30.636 891.359 28.908C891.359 27.288 892.619 26.244 894.707 26.244C896.813 26.244 898.271 27.378 898.505 29.502H897.047C896.885 28.17 895.949 27.522 894.653 27.522C893.483 27.522 892.799 28.044 892.799 28.872C892.799 29.862 893.843 30.06 894.635 30.33L895.931 30.762C897.677 31.338 898.721 31.932 898.721 33.516C898.721 35.19 897.497 36.198 895.175 36.198ZM905.28 36H904.218C902.364 36 901.374 35.046 901.374 33.282V27.72H899.61V26.46H901.374V23.202H902.868V26.46H905.442V27.72H902.868V33.282C902.868 34.236 903.336 34.74 904.218 34.74H905.28V36ZM907.959 24.858C907.329 24.858 906.843 24.372 906.843 23.742C906.843 23.112 907.329 22.644 907.959 22.644C908.589 22.644 909.057 23.112 909.057 23.742C909.057 24.372 908.589 24.858 907.959 24.858ZM908.697 36H907.203V26.46H908.697V36ZM915.82 36H914.254L910.276 26.46H911.896L915.046 34.254L918.178 26.46H919.798L915.82 36ZM924.132 36.144C921.972 36.144 920.586 35.028 920.586 33.282C920.586 31.086 922.71 30.672 924.618 30.474C926.076 30.33 927.336 30.348 927.354 29.574C927.336 28.368 926.346 27.522 924.906 27.522C923.52 27.522 922.44 28.296 922.278 29.43H920.802C920.982 27.558 922.674 26.244 924.942 26.244C927.3 26.244 928.812 27.648 928.812 29.664V34.308C928.812 34.614 928.974 34.776 929.298 34.776H929.838V36H928.992C927.966 36 927.426 35.532 927.426 34.65V34.362C926.868 35.46 925.788 36.144 924.132 36.144ZM924.348 34.866C926.13 34.866 927.354 33.732 927.354 32.148V30.906C926.94 31.464 925.878 31.572 924.708 31.698C923.394 31.842 922.08 32.022 922.08 33.246C922.08 34.236 922.98 34.866 924.348 34.866ZM933.061 36H931.567V22.5H933.061V36ZM943.793 36.198C940.733 36.198 939.113 34.02 939.113 31.14C939.113 27.954 941.201 26.244 943.793 26.244C946.835 26.244 948.473 28.44 948.473 31.14C948.473 34.434 946.475 36.198 943.793 36.198ZM943.793 34.902C945.827 34.902 946.943 33.21 946.943 31.14C946.943 28.998 945.701 27.54 943.793 27.54C941.885 27.54 940.643 28.998 940.643 31.14C940.643 33.588 942.065 34.902 943.793 34.902ZM952.737 36H951.243V27.72H949.479V26.46H951.243V25.128C951.243 23.418 952.197 22.5 953.961 22.5H956.085V23.76H953.961C953.169 23.76 952.737 24.246 952.737 25.128V26.46H955.833V27.72H952.737V36ZM963.319 36H961.807V23.4H963.319V36ZM967.566 36H966.072V26.46H967.26L967.404 27.918C968.052 26.91 969.294 26.244 970.716 26.244C972.768 26.244 974.136 27.576 974.136 29.682V36H972.642V29.736C972.642 28.404 971.778 27.558 970.338 27.558C968.628 27.558 967.584 28.746 967.566 30.204V36ZM980.33 36.198C977.774 36.198 975.992 34.146 975.992 31.176C975.992 28.26 977.756 26.244 980.312 26.244C981.752 26.244 982.958 26.874 983.642 27.882V22.5H985.136V36H983.948L983.786 34.164C983.156 35.406 981.896 36.198 980.33 36.198ZM980.564 34.902C982.382 34.902 983.642 33.354 983.642 31.14C983.642 28.998 982.418 27.522 980.654 27.522C978.818 27.522 977.54 29.016 977.54 31.176C977.54 33.372 978.782 34.902 980.564 34.902ZM988.396 24.858C987.766 24.858 987.28 24.372 987.28 23.742C987.28 23.112 987.766 22.644 988.396 22.644C989.026 22.644 989.494 23.112 989.494 23.742C989.494 24.372 989.026 24.858 988.396 24.858ZM989.134 36H987.64V26.46H989.134V36ZM994.656 36.144C992.496 36.144 991.11 35.028 991.11 33.282C991.11 31.086 993.234 30.672 995.142 30.474C996.6 30.33 997.86 30.348 997.878 29.574C997.86 28.368 996.87 27.522 995.43 27.522C994.044 27.522 992.964 28.296 992.802 29.43H991.326C991.506 27.558 993.198 26.244 995.466 26.244C997.824 26.244 999.336 27.648 999.336 29.664V34.308C999.336 34.614 999.498 34.776 999.822 34.776H1000.36V36H999.516C998.49 36 997.95 35.532 997.95 34.65V34.362C997.392 35.46 996.312 36.144 994.656 36.144ZM994.872 34.866C996.654 34.866 997.878 33.732 997.878 32.148V30.906C997.464 31.464 996.402 31.572 995.232 31.698C993.918 31.842 992.604 32.022 992.604 33.246C992.604 34.236 993.504 34.866 994.872 34.866ZM1003.53 36H1002.04V26.46H1003.22L1003.37 27.918C1004.02 26.91 1005.26 26.244 1006.68 26.244C1008.73 26.244 1010.1 27.576 1010.1 29.682V36H1008.61V29.736C1008.61 28.404 1007.74 27.558 1006.3 27.558C1004.59 27.558 1003.55 28.746 1003.53 30.204V36ZM1018.3 36H1016.79V23.4H1018.3V36ZM1022.55 36H1021.06V26.46H1022.24L1022.39 27.918C1023.04 26.91 1024.28 26.244 1025.7 26.244C1027.75 26.244 1029.12 27.576 1029.12 29.682V36H1027.63V29.736C1027.63 28.404 1026.76 27.558 1025.32 27.558C1023.61 27.558 1022.57 28.746 1022.55 30.204V36ZM1035.03 36.198C1032.76 36.198 1031.08 35.01 1030.96 32.994H1032.42C1032.52 34.236 1033.66 34.92 1035.1 34.92C1036.45 34.92 1037.1 34.398 1037.1 33.444C1037.1 32.544 1036.39 32.346 1035.4 32.004L1034.02 31.536C1032.61 31.068 1031.21 30.636 1031.21 28.908C1031.21 27.288 1032.47 26.244 1034.56 26.244C1036.66 26.244 1038.12 27.378 1038.36 29.502H1036.9C1036.74 28.17 1035.8 27.522 1034.5 27.522C1033.33 27.522 1032.65 28.044 1032.65 28.872C1032.65 29.862 1033.69 30.06 1034.49 30.33L1035.78 30.762C1037.53 31.338 1038.57 31.932 1038.57 33.516C1038.57 35.19 1037.35 36.198 1035.03 36.198ZM1045.13 36H1044.07C1042.22 36 1041.23 35.046 1041.23 33.282V27.72H1039.46V26.46H1041.23V23.202H1042.72V26.46H1045.29V27.72H1042.72V33.282C1042.72 34.236 1043.19 34.74 1044.07 34.74H1045.13V36ZM1047.81 24.858C1047.18 24.858 1046.69 24.372 1046.69 23.742C1046.69 23.112 1047.18 22.644 1047.81 22.644C1048.44 22.644 1048.91 23.112 1048.91 23.742C1048.91 24.372 1048.44 24.858 1047.81 24.858ZM1048.55 36H1047.05V26.46H1048.55V36ZM1055.96 36H1054.9C1053.04 36 1052.05 35.046 1052.05 33.282V27.72H1050.29V26.46H1052.05V23.202H1053.55V26.46H1056.12V27.72H1053.55V33.282C1053.55 34.236 1054.02 34.74 1054.9 34.74H1055.96V36ZM1061.36 36.198C1059.03 36.198 1057.7 34.776 1057.7 32.832V26.46H1059.2V32.778C1059.2 34.146 1060.15 34.884 1061.5 34.884C1063.28 34.884 1064.25 33.696 1064.27 32.256V26.46H1065.77V36H1064.58L1064.45 34.56C1063.82 35.64 1062.67 36.198 1061.36 36.198ZM1073.19 36H1072.12C1070.27 36 1069.28 35.046 1069.28 33.282V27.72H1067.52V26.46H1069.28V23.202H1070.77V26.46H1073.35V27.72H1070.77V33.282C1070.77 34.236 1071.24 34.74 1072.12 34.74H1073.19V36ZM1079.09 36.198C1076.27 36.198 1074.39 34.128 1074.39 31.266C1074.39 28.008 1076.5 26.244 1078.91 26.244C1081.54 26.244 1083.23 28.008 1083.29 31.068V31.482H1075.89C1075.98 33.516 1077.17 34.902 1079.09 34.902C1080.42 34.902 1081.4 34.236 1081.79 32.994H1083.25C1082.82 34.956 1081.27 36.198 1079.09 36.198ZM1075.98 30.24H1081.72C1081.45 28.566 1080.44 27.54 1078.91 27.54C1077.4 27.54 1076.28 28.53 1075.98 30.24ZM1093.49 36.198C1090.43 36.198 1088.81 34.02 1088.81 31.14C1088.81 27.954 1090.9 26.244 1093.49 26.244C1096.53 26.244 1098.17 28.44 1098.17 31.14C1098.17 34.434 1096.17 36.198 1093.49 36.198ZM1093.49 34.902C1095.52 34.902 1096.64 33.21 1096.64 31.14C1096.64 28.998 1095.4 27.54 1093.49 27.54C1091.58 27.54 1090.34 28.998 1090.34 31.14C1090.34 33.588 1091.76 34.902 1093.49 34.902ZM1102.43 36H1100.94V27.72H1099.17V26.46H1100.94V25.128C1100.94 23.418 1101.89 22.5 1103.66 22.5H1105.78V23.76H1103.66C1102.86 23.76 1102.43 24.246 1102.43 25.128V26.46H1105.53V27.72H1102.43V36ZM1116.47 36H1114.96V24.786H1110.6V23.4H1120.83V24.786H1116.47V36ZM1125.09 36.198C1122.27 36.198 1120.4 34.128 1120.4 31.266C1120.4 28.008 1122.5 26.244 1124.91 26.244C1127.54 26.244 1129.23 28.008 1129.29 31.068V31.482H1121.89C1121.98 33.516 1123.17 34.902 1125.09 34.902C1126.43 34.902 1127.4 34.236 1127.79 32.994H1129.25C1128.82 34.956 1127.27 36.198 1125.09 36.198ZM1121.98 30.24H1127.72C1127.45 28.566 1126.44 27.54 1124.91 27.54C1123.4 27.54 1122.29 28.53 1121.98 30.24ZM1135.52 36.198C1132.42 36.198 1130.77 33.93 1130.77 31.176C1130.77 27.972 1132.87 26.244 1135.47 26.244C1137.86 26.244 1139.57 27.684 1139.84 30.132H1138.38C1138.13 28.548 1137.03 27.54 1135.43 27.54C1133.54 27.54 1132.28 28.926 1132.28 31.176C1132.28 33.606 1133.76 34.902 1135.54 34.902C1137.07 34.902 1138.11 33.93 1138.38 32.274H1139.84C1139.57 34.74 1137.99 36.198 1135.52 36.198ZM1143.35 36H1141.85V22.5H1143.35V27.684C1144.03 26.82 1145.2 26.244 1146.5 26.244C1148.55 26.244 1149.92 27.576 1149.92 29.682V36H1148.42V29.736C1148.42 28.404 1147.56 27.558 1146.21 27.558C1144.41 27.558 1143.37 28.746 1143.35 30.204V36ZM1153.75 36H1152.26V26.46H1153.45L1153.59 27.918C1154.24 26.91 1155.48 26.244 1156.9 26.244C1158.96 26.244 1160.32 27.576 1160.32 29.682V36H1158.83V29.736C1158.83 28.404 1157.97 27.558 1156.53 27.558C1154.82 27.558 1153.77 28.746 1153.75 30.204V36ZM1166.86 36.198C1163.8 36.198 1162.18 34.02 1162.18 31.14C1162.18 27.954 1164.27 26.244 1166.86 26.244C1169.9 26.244 1171.54 28.44 1171.54 31.14C1171.54 34.434 1169.54 36.198 1166.86 36.198ZM1166.86 34.902C1168.89 34.902 1170.01 33.21 1170.01 31.14C1170.01 28.998 1168.77 27.54 1166.86 27.54C1164.95 27.54 1163.71 28.998 1163.71 31.14C1163.71 33.588 1165.13 34.902 1166.86 34.902ZM1175.04 36H1173.55V22.5H1175.04V36ZM1181.73 36.198C1178.67 36.198 1177.05 34.02 1177.05 31.14C1177.05 27.954 1179.14 26.244 1181.73 26.244C1184.77 26.244 1186.41 28.44 1186.41 31.14C1186.41 34.434 1184.41 36.198 1181.73 36.198ZM1181.73 34.902C1183.76 34.902 1184.88 33.21 1184.88 31.14C1184.88 28.998 1183.64 27.54 1181.73 27.54C1179.82 27.54 1178.58 28.998 1178.58 31.14C1178.58 33.588 1180 34.902 1181.73 34.902ZM1192.52 39.816C1189.95 39.816 1188.2 38.574 1188.2 36.558H1189.7C1189.7 37.692 1190.85 38.556 1192.52 38.556C1194.48 38.556 1195.51 37.386 1195.51 35.748V34.2C1194.84 35.19 1193.69 35.838 1192.23 35.838C1189.7 35.838 1187.88 33.894 1187.88 31.086C1187.88 28.224 1189.71 26.244 1192.23 26.244C1193.76 26.244 1195.01 26.964 1195.65 28.116L1195.82 26.46H1196.99V35.748C1196.99 38.16 1195.37 39.816 1192.52 39.816ZM1192.45 34.542C1194.25 34.542 1195.51 33.102 1195.51 31.032C1195.51 28.98 1194.25 27.54 1192.45 27.54C1190.67 27.54 1189.43 28.98 1189.43 31.068C1189.43 33.12 1190.67 34.542 1192.45 34.542ZM1200.59 39.6H1199.06V38.34H1200.59C1201.56 38.34 1201.98 37.998 1202.19 37.422L1202.71 36H1202.35L1198.57 26.46H1200.18L1203.27 34.506L1206.26 26.46H1207.79L1203.51 37.998C1203.11 39.042 1202.23 39.6 1200.59 39.6ZM1217.57 37.926L1216.35 38.34C1214.49 36.27 1213.58 33.498 1213.58 30.528C1213.58 27.504 1214.51 24.606 1216.35 22.374L1217.54 22.842C1215.77 24.912 1214.93 27.63 1214.94 30.528C1214.96 33.354 1215.84 35.982 1217.57 37.926ZM1220.96 36H1219.45V23.4H1220.96V36ZM1225.53 36H1224.02V23.4H1225.53V36ZM1233.56 36H1232.05V24.786H1227.69V23.4H1237.91V24.786H1233.56V36ZM1240.11 38.34L1238.88 37.926C1240.61 35.982 1241.49 33.354 1241.51 30.528C1241.53 27.63 1240.68 24.912 1238.92 22.842L1240.11 22.374C1241.94 24.606 1242.88 27.504 1242.88 30.528C1242.88 33.498 1241.96 36.27 1240.11 38.34ZM1247.92 33.282L1245.96 39.294L1244.76 38.916L1246.65 32.886L1247.92 33.282ZM825.332 60.198C821.858 60.198 819.374 57.642 819.374 53.664C819.374 49.92 821.66 47.202 825.494 47.202C828.698 47.202 830.912 49.146 831.434 52.242H829.868C829.4 49.938 827.798 48.588 825.494 48.588C822.704 48.588 820.958 50.514 820.958 53.664C820.958 56.85 822.74 58.812 825.332 58.812C827.69 58.812 829.184 57.21 829.184 54.924H824.936V53.628H829.364C830.678 53.628 831.38 54.294 831.38 55.518V60H830.03V55.698H829.994C829.76 58.47 828.122 60.198 825.332 60.198ZM837.269 60.198C834.947 60.198 833.615 58.776 833.615 56.832V50.46H835.109V56.778C835.109 58.146 836.063 58.884 837.413 58.884C839.195 58.884 840.167 57.696 840.185 56.256V50.46H841.679V60H840.491L840.365 58.56C839.735 59.64 838.583 60.198 837.269 60.198ZM847.749 60H846.093L843.267 50.46H844.797L846.993 58.146L849.117 50.46H850.413L852.537 58.11L854.715 50.46H856.245L853.419 60H851.781L849.765 52.728L847.749 60ZM860.814 60.144C858.654 60.144 857.268 59.028 857.268 57.282C857.268 55.086 859.392 54.672 861.3 54.474C862.758 54.33 864.018 54.348 864.036 53.574C864.018 52.368 863.028 51.522 861.588 51.522C860.202 51.522 859.122 52.296 858.96 53.43H857.484C857.664 51.558 859.356 50.244 861.624 50.244C863.982 50.244 865.494 51.648 865.494 53.664V58.308C865.494 58.614 865.656 58.776 865.98 58.776H866.52V60H865.674C864.648 60 864.108 59.532 864.108 58.65V58.362C863.55 59.46 862.47 60.144 860.814 60.144ZM861.03 58.866C862.812 58.866 864.036 57.732 864.036 56.148V54.906C863.622 55.464 862.56 55.572 861.39 55.698C860.076 55.842 858.762 56.022 858.762 57.246C858.762 58.236 859.662 58.866 861.03 58.866ZM869.743 60H868.249V46.5H869.743V51.684C870.427 50.82 871.597 50.244 872.893 50.244C874.945 50.244 876.313 51.576 876.313 53.682V60H874.819V53.736C874.819 52.404 873.955 51.558 872.605 51.558C870.805 51.558 869.761 52.746 869.743 54.204V60ZM881.732 60.144C879.572 60.144 878.186 59.028 878.186 57.282C878.186 55.086 880.31 54.672 882.218 54.474C883.676 54.33 884.936 54.348 884.954 53.574C884.936 52.368 883.946 51.522 882.506 51.522C881.12 51.522 880.04 52.296 879.878 53.43H878.402C878.582 51.558 880.274 50.244 882.542 50.244C884.9 50.244 886.412 51.648 886.412 53.664V58.308C886.412 58.614 886.574 58.776 886.898 58.776H887.438V60H886.592C885.566 60 885.026 59.532 885.026 58.65V58.362C884.468 59.46 883.388 60.144 881.732 60.144ZM881.948 58.866C883.73 58.866 884.954 57.732 884.954 56.148V54.906C884.54 55.464 883.478 55.572 882.308 55.698C880.994 55.842 879.68 56.022 879.68 57.246C879.68 58.236 880.58 58.866 881.948 58.866ZM893.835 60H892.773C890.919 60 889.929 59.046 889.929 57.282V51.72H888.165V50.46H889.929V47.202H891.423V50.46H893.997V51.72H891.423V57.282C891.423 58.236 891.891 58.74 892.773 58.74H893.835V60ZM896.514 48.858C895.884 48.858 895.398 48.372 895.398 47.742C895.398 47.112 895.884 46.644 896.514 46.644C897.144 46.644 897.612 47.112 897.612 47.742C897.612 48.372 897.144 48.858 896.514 48.858ZM897.252 60H895.758V50.46H897.252V60ZM900.505 60.18C899.857 60.18 899.371 59.694 899.371 59.046C899.371 58.416 899.857 57.93 900.505 57.93C901.153 57.93 901.639 58.416 901.639 59.046C901.639 59.694 901.153 60.18 900.505 60.18ZM913.073 60H911.561V48.786H907.205V47.4H917.429V48.786H913.073V60ZM920.825 60H919.331V46.5H920.825V51.684C921.509 50.82 922.679 50.244 923.975 50.244C926.027 50.244 927.395 51.576 927.395 53.682V60H925.901V53.736C925.901 52.404 925.037 51.558 923.687 51.558C921.887 51.558 920.843 52.746 920.825 54.204V60ZM930.492 48.858C929.862 48.858 929.376 48.372 929.376 47.742C929.376 47.112 929.862 46.644 930.492 46.644C931.122 46.644 931.59 47.112 931.59 47.742C931.59 48.372 931.122 48.858 930.492 48.858ZM931.23 60H929.736V50.46H931.23V60ZM937.238 60.198C934.97 60.198 933.296 59.01 933.17 56.994H934.628C934.736 58.236 935.87 58.92 937.31 58.92C938.66 58.92 939.308 58.398 939.308 57.444C939.308 56.544 938.606 56.346 937.616 56.004L936.23 55.536C934.826 55.068 933.422 54.636 933.422 52.908C933.422 51.288 934.682 50.244 936.77 50.244C938.876 50.244 940.334 51.378 940.568 53.502H939.11C938.948 52.17 938.012 51.522 936.716 51.522C935.546 51.522 934.862 52.044 934.862 52.872C934.862 53.862 935.906 54.06 936.698 54.33L937.994 54.762C939.74 55.338 940.784 55.932 940.784 57.516C940.784 59.19 939.56 60.198 937.238 60.198ZM947.816 63.6H946.286V62.34H947.816C948.788 62.34 949.202 61.998 949.418 61.422L949.94 60H949.58L945.8 50.46H947.402L950.498 58.506L953.486 50.46H955.016L950.732 61.998C950.336 63.042 949.454 63.6 947.816 63.6ZM960.456 60.198C957.63 60.198 955.758 58.128 955.758 55.266C955.758 52.008 957.864 50.244 960.276 50.244C962.904 50.244 964.596 52.008 964.65 55.068V55.482H957.252C957.342 57.516 958.53 58.902 960.456 58.902C961.788 58.902 962.76 58.236 963.156 56.994H964.614C964.182 58.956 962.634 60.198 960.456 60.198ZM957.342 54.24H963.084C962.814 52.566 961.806 51.54 960.276 51.54C958.764 51.54 957.648 52.53 957.342 54.24ZM969.693 60.144C967.533 60.144 966.147 59.028 966.147 57.282C966.147 55.086 968.271 54.672 970.179 54.474C971.637 54.33 972.897 54.348 972.915 53.574C972.897 52.368 971.907 51.522 970.467 51.522C969.081 51.522 968.001 52.296 967.839 53.43H966.363C966.543 51.558 968.235 50.244 970.503 50.244C972.861 50.244 974.373 51.648 974.373 53.664V58.308C974.373 58.614 974.535 58.776 974.859 58.776H975.399V60H974.553C973.527 60 972.987 59.532 972.987 58.65V58.362C972.429 59.46 971.349 60.144 969.693 60.144ZM969.909 58.866C971.691 58.866 972.915 57.732 972.915 56.148V54.906C972.501 55.464 971.439 55.572 970.269 55.698C968.955 55.842 967.641 56.022 967.641 57.246C967.641 58.236 968.541 58.866 969.909 58.866ZM978.568 60H977.074V50.46H978.262L978.442 52.278C979.054 51.054 980.17 50.406 981.754 50.406H982.078V51.882H981.754C979.738 51.882 978.568 53.034 978.568 54.996V60ZM991.45 60H989.794L986.968 50.46H988.498L990.694 58.146L992.818 50.46H994.114L996.238 58.11L998.416 50.46H999.946L997.12 60H995.482L993.466 52.728L991.45 60ZM1005.61 60.198C1002.79 60.198 1000.92 58.128 1000.92 55.266C1000.92 52.008 1003.02 50.244 1005.43 50.244C1008.06 50.244 1009.75 52.008 1009.81 55.068V55.482H1002.41C1002.5 57.516 1003.69 58.902 1005.61 58.902C1006.95 58.902 1007.92 58.236 1008.31 56.994H1009.77C1009.34 58.956 1007.79 60.198 1005.61 60.198ZM1002.5 54.24H1008.24C1007.97 52.566 1006.96 51.54 1005.43 51.54C1003.92 51.54 1002.81 52.53 1002.5 54.24ZM1020.71 60.198C1019.15 60.198 1017.87 59.424 1017.22 58.182L1017.06 60H1015.87V46.5H1017.36V51.954C1018.07 50.91 1019.27 50.244 1020.71 50.244C1023.23 50.244 1025 52.26 1025 55.176C1025 58.146 1023.23 60.198 1020.71 60.198ZM1020.48 58.902C1022.24 58.902 1023.45 57.372 1023.45 55.176C1023.45 53.034 1022.24 51.54 1020.46 51.54C1018.66 51.54 1017.36 52.998 1017.36 55.104C1017.36 57.336 1018.66 58.902 1020.48 58.902ZM1028.45 60H1026.96V50.46H1028.15L1028.33 52.278C1028.94 51.054 1030.06 50.406 1031.64 50.406H1031.96V51.882H1031.64C1029.62 51.882 1028.45 53.034 1028.45 54.996V60ZM1034.43 48.858C1033.8 48.858 1033.32 48.372 1033.32 47.742C1033.32 47.112 1033.8 46.644 1034.43 46.644C1035.06 46.644 1035.53 47.112 1035.53 47.742C1035.53 48.372 1035.06 48.858 1034.43 48.858ZM1035.17 60H1033.68V50.46H1035.17V60ZM1039.11 60H1037.61V50.46H1038.8L1038.95 51.918C1039.59 50.91 1040.84 50.244 1042.26 50.244C1044.31 50.244 1045.68 51.576 1045.68 53.682V60H1044.18V53.736C1044.18 52.404 1043.32 51.558 1041.88 51.558C1040.17 51.558 1039.13 52.746 1039.11 54.204V60ZM1052.18 63.816C1049.6 63.816 1047.86 62.574 1047.86 60.558H1049.35C1049.35 61.692 1050.5 62.556 1052.18 62.556C1054.14 62.556 1055.17 61.386 1055.17 59.748V58.2C1054.5 59.19 1053.35 59.838 1051.89 59.838C1049.35 59.838 1047.53 57.894 1047.53 55.086C1047.53 52.224 1049.37 50.244 1051.89 50.244C1053.42 50.244 1054.66 50.964 1055.31 52.116L1055.47 50.46H1056.64V59.748C1056.64 62.16 1055.02 63.816 1052.18 63.816ZM1052.11 58.542C1053.91 58.542 1055.17 57.102 1055.17 55.032C1055.17 52.98 1053.91 51.54 1052.11 51.54C1050.32 51.54 1049.08 52.98 1049.08 55.068C1049.08 57.12 1050.32 58.542 1052.11 58.542ZM1068.1 60H1067.04C1065.19 60 1064.2 59.046 1064.2 57.282V51.72H1062.43V50.46H1064.2V47.202H1065.69V50.46H1068.27V51.72H1065.69V57.282C1065.69 58.236 1066.16 58.74 1067.04 58.74H1068.1V60ZM1073.99 60.198C1070.93 60.198 1069.31 58.02 1069.31 55.14C1069.31 51.954 1071.4 50.244 1073.99 50.244C1077.03 50.244 1078.67 52.44 1078.67 55.14C1078.67 58.434 1076.67 60.198 1073.99 60.198ZM1073.99 58.902C1076.03 58.902 1077.14 57.21 1077.14 55.14C1077.14 52.998 1075.9 51.54 1073.99 51.54C1072.08 51.54 1070.84 52.998 1070.84 55.14C1070.84 57.588 1072.26 58.902 1073.99 58.902ZM1085.82 63.6H1084.29V62.34H1085.82C1086.79 62.34 1087.21 61.998 1087.42 61.422L1087.95 60H1087.59L1083.81 50.46H1085.41L1088.5 58.506L1091.49 50.46H1093.02L1088.74 61.998C1088.34 63.042 1087.46 63.6 1085.82 63.6ZM1098.44 60.198C1095.38 60.198 1093.76 58.02 1093.76 55.14C1093.76 51.954 1095.85 50.244 1098.44 50.244C1101.49 50.244 1103.12 52.44 1103.12 55.14C1103.12 58.434 1101.13 60.198 1098.44 60.198ZM1098.44 58.902C1100.48 58.902 1101.59 57.21 1101.59 55.14C1101.59 52.998 1100.35 51.54 1098.44 51.54C1096.54 51.54 1095.29 52.998 1095.29 55.14C1095.29 57.588 1096.72 58.902 1098.44 58.902ZM1108.55 60.198C1106.23 60.198 1104.9 58.776 1104.9 56.832V50.46H1106.39V56.778C1106.39 58.146 1107.35 58.884 1108.7 58.884C1110.48 58.884 1111.45 57.696 1111.47 56.256V50.46H1112.96V60H1111.77L1111.65 58.56C1111.02 59.64 1109.87 60.198 1108.55 60.198ZM1124.42 60H1123.36C1121.51 60 1120.52 59.046 1120.52 57.282V51.72H1118.75V50.46H1120.52V47.202H1122.01V50.46H1124.59V51.72H1122.01V57.282C1122.01 58.236 1122.48 58.74 1123.36 58.74H1124.42V60ZM1127.9 60H1126.4V46.5H1127.9V51.684C1128.58 50.82 1129.75 50.244 1131.05 50.244C1133.1 50.244 1134.47 51.576 1134.47 53.682V60H1132.97V53.736C1132.97 52.404 1132.11 51.558 1130.76 51.558C1128.96 51.558 1127.91 52.746 1127.9 54.204V60ZM1141.02 60.198C1138.19 60.198 1136.32 58.128 1136.32 55.266C1136.32 52.008 1138.43 50.244 1140.84 50.244C1143.47 50.244 1145.16 52.008 1145.21 55.068V55.482H1137.81C1137.9 57.516 1139.09 58.902 1141.02 58.902C1142.35 58.902 1143.32 58.236 1143.72 56.994H1145.18C1144.74 58.956 1143.2 60.198 1141.02 60.198ZM1137.9 54.24H1143.65C1143.38 52.566 1142.37 51.54 1140.84 51.54C1139.33 51.54 1138.21 52.53 1137.9 54.24ZM1159.61 50.964C1159.61 55.122 1153.97 55.122 1153.45 58.056H1159.37V60H1151V58.812C1151 53.988 1157.41 54.222 1157.41 51.036C1157.41 49.866 1156.6 49.074 1155.36 49.074C1154.05 49.074 1153.02 49.956 1152.98 51.576H1150.72C1150.91 48.732 1152.86 47.13 1155.4 47.13C1157.92 47.13 1159.61 48.678 1159.61 50.964ZM1165.9 60.288C1163.27 60.288 1161.32 58.704 1161 56.148H1163.29C1163.48 57.462 1164.55 58.308 1165.91 58.308C1167.44 58.308 1168.36 57.228 1168.36 55.86C1168.36 54.528 1167.46 53.43 1165.95 53.43C1165.12 53.43 1164.42 53.754 1163.77 54.438H1161.36L1162.48 47.4H1169.96V49.362H1164.26L1163.7 52.944C1164.38 52.188 1165.37 51.666 1166.62 51.666C1168.92 51.666 1170.54 53.394 1170.54 55.842C1170.54 58.47 1168.65 60.288 1165.9 60.288ZM1175.16 54H1174.43C1173.19 54 1172.52 53.3844 1172.52 52.2504V49.356H1171.51V48.276H1172.52V46.3212H1173.79V48.276H1175.27V49.356H1173.79V52.164C1173.79 52.65 1174.04 52.92 1174.51 52.92H1175.16V54ZM1177.82 54H1176.55V45.9H1177.82V48.8916C1178.21 48.4164 1178.87 48.1032 1179.62 48.1032C1180.84 48.1032 1181.64 48.924 1181.64 50.2092V54H1180.36V50.274C1180.36 49.6368 1179.94 49.2156 1179.26 49.2156C1178.4 49.2156 1177.83 49.788 1177.82 50.5332V54ZM1195.5 60H1186.52V47.4H1195.34V49.344H1188.66V52.584H1194.71V54.474H1188.66V58.056H1195.5V60ZM1201.22 60.27C1198.64 60.27 1196.79 58.182 1196.79 55.176C1196.79 52.224 1198.61 50.172 1201.14 50.172C1202.49 50.172 1203.61 50.73 1204.28 51.63V46.5H1206.4V60H1204.69L1204.49 58.308C1203.95 59.514 1202.76 60.27 1201.22 60.27ZM1201.61 58.47C1203.18 58.47 1204.28 57.102 1204.28 55.158C1204.28 53.268 1203.2 51.954 1201.65 51.954C1200.06 51.954 1198.97 53.286 1198.97 55.194C1198.97 57.12 1200.05 58.47 1201.61 58.47ZM1209.66 49.182C1208.88 49.182 1208.29 48.57 1208.29 47.796C1208.29 47.022 1208.88 46.428 1209.66 46.428C1210.45 46.428 1211.02 47.022 1211.02 47.796C1211.02 48.57 1210.45 49.182 1209.66 49.182ZM1210.72 60H1208.59V50.46H1210.72V60ZM1218.35 60H1217.13C1215.06 60 1213.94 58.974 1213.94 57.084V52.26H1212.27V50.46H1213.94V47.202H1216.07V50.46H1218.53V52.26H1216.07V56.94C1216.07 57.75 1216.48 58.2 1217.27 58.2H1218.35V60ZM1221.15 49.182C1220.38 49.182 1219.78 48.57 1219.78 47.796C1219.78 47.022 1220.38 46.428 1221.15 46.428C1221.94 46.428 1222.52 47.022 1222.52 47.796C1222.52 48.57 1221.94 49.182 1221.15 49.182ZM1222.21 60H1220.09V50.46H1222.21V60ZM1228.77 60.27C1225.67 60.27 1223.87 58.092 1223.87 55.14C1223.87 52.026 1225.98 50.172 1228.77 50.172C1231.85 50.172 1233.65 52.332 1233.65 55.14C1233.65 58.362 1231.61 60.27 1228.77 60.27ZM1228.77 58.452C1230.48 58.452 1231.49 57.048 1231.49 55.14C1231.49 53.25 1230.43 51.99 1228.77 51.99C1227.11 51.99 1226.03 53.25 1226.03 55.14C1226.03 57.228 1227.2 58.452 1228.77 58.452ZM1237.44 60H1235.31V50.46H1237.02L1237.2 51.864C1237.8 50.874 1239 50.172 1240.42 50.172C1242.46 50.172 1243.79 51.54 1243.79 53.682V60H1241.67V53.79C1241.67 52.728 1240.96 52.026 1239.78 52.026C1238.39 52.026 1237.45 52.98 1237.44 54.222V60ZM1246.78 60.18C1246.13 60.18 1245.64 59.694 1245.64 59.046C1245.64 58.416 1246.13 57.93 1246.78 57.93C1247.43 57.93 1247.91 58.416 1247.91 59.046C1247.91 59.694 1247.43 60.18 1246.78 60.18Z" fill="white"/>
</g>
<path d="M49.4163 13C40.378 13 32.1927 16.4477 26.2693 22.0297C20.3459 27.6072 16.6797 35.3146 16.6797 43.825C16.6797 52.3355 20.3459 60.0427 26.2693 65.6202C32.1927 71.1977 40.378 74.6499 49.4163 74.6499C58.4545 74.6499 66.6398 71.1977 72.5632 65.6202C78.4866 60.0427 82.1528 52.3355 82.1528 43.825C82.1528 35.3146 78.4913 27.6072 72.5632 22.0297C66.6398 16.4522 58.4545 13 49.4163 13ZM60.3442 42.8622C60.2876 37.5731 59.7787 32.6213 58.9305 28.3394H67.3702C69.3541 32.5636 70.5511 37.5288 70.6783 42.8622H60.3442ZM70.6783 44.7879C70.5511 50.1213 69.3541 55.082 67.3702 59.3061H58.9305C59.7787 55.0287 60.2876 50.077 60.3442 44.7879H70.6783ZM58.5158 26.4135C58.1812 24.9892 57.8089 23.6537 57.399 22.4246C56.4423 19.5494 55.2737 17.2153 53.9448 15.5869C57.9409 16.7716 61.5317 19.4872 64.3449 23.2588C65.08 24.2438 65.7586 25.2955 66.3807 26.4092H58.5064L58.5158 26.4135ZM40.5335 42.8622C40.5901 37.5376 41.1131 32.5769 41.9802 28.3394H56.8523C57.7194 32.5769 58.2425 37.5376 58.299 42.8622H40.5335ZM58.299 44.7879C58.2425 50.1125 57.7194 55.0687 56.8523 59.3061H41.9802C41.1131 55.0687 40.5901 50.108 40.5335 44.7879H58.299ZM49.4163 14.9257C51.6546 14.9257 53.794 18.0097 55.4481 22.997C55.8015 24.0575 56.1266 25.2023 56.4188 26.4181H42.409C42.7012 25.2023 43.0263 24.0575 43.3798 22.997C45.0338 18.0097 47.1779 14.9257 49.4115 14.9257H49.4163ZM41.4336 22.4246C41.0236 23.6537 40.6513 24.9892 40.3167 26.4135H32.4471C33.0692 25.2954 33.7525 24.2437 34.4829 23.2631C37.3009 19.4915 40.8869 16.776 44.8877 15.5912C43.5588 17.2197 42.3902 19.5492 41.4336 22.429V22.4246ZM38.4884 42.8622H28.1542C28.2815 37.5288 29.4784 32.5636 31.4623 28.3394H39.9068C39.0586 32.6168 38.5496 37.5687 38.4931 42.8622H38.4884ZM39.9021 59.3107H31.4576C29.4737 55.0865 28.2814 50.1257 28.1495 44.7922H38.4837C38.5402 50.0813 39.0444 55.0333 39.8974 59.3107H39.9021ZM27.716 23.3918C30.5811 20.694 34.0069 18.5332 37.8192 17.0645C35.9814 18.4578 34.2991 20.1748 32.8147 22.1538C31.8393 23.4628 30.9486 24.8871 30.1617 26.4135H24.9216C25.7792 25.3442 26.7122 24.337 27.716 23.3875V23.3918ZM23.5031 28.3437H29.2428C27.3578 32.6345 26.2316 37.5863 26.1091 42.8666H18.7437C18.9275 37.5375 20.6475 32.5679 23.4984 28.3437H23.5031ZM18.7484 44.7922H26.1138C26.2363 50.0724 27.3626 55.02 29.2475 59.3107H23.5079C20.6569 55.0865 18.9369 50.1212 18.7531 44.7922H18.7484ZM27.7207 64.2626C26.717 63.3175 25.7839 62.3058 24.9263 61.2409H30.1664C30.9533 62.7629 31.844 64.1915 32.8194 65.4961C34.2991 67.4795 35.9814 69.1967 37.8239 70.5899C34.0116 69.1257 30.5858 66.9604 27.7207 64.2626ZM34.4923 64.3913C33.7572 63.4063 33.0786 62.3546 32.4566 61.2409H40.3262C40.6607 62.6652 41.033 64.0007 41.443 65.2298C42.3949 68.1051 43.5683 70.439 44.8971 72.063C40.8964 70.8783 37.3103 68.1629 34.4923 64.3913ZM49.4257 72.7242C47.192 72.7242 45.0479 69.6403 43.3939 64.6574C43.0405 63.5969 42.7153 62.4521 42.4232 61.2364H56.4329C56.1361 62.4477 55.8109 63.5969 55.4622 64.6574C53.8082 69.6448 51.664 72.7242 49.4304 72.7242H49.4257ZM57.4084 65.2298C57.8183 64.0007 58.1906 62.6608 58.5252 61.2409H66.3995C65.7775 62.3591 65.0942 63.4107 64.3638 64.3913C61.5458 68.1629 57.9597 70.8783 53.9637 72.063C55.2925 70.4345 56.4612 68.1051 57.4178 65.2298H57.4084ZM71.126 64.2626C68.2609 66.9604 64.835 69.1257 61.0275 70.5899C62.8653 69.1967 64.5476 67.4795 66.0272 65.4961C67.0027 64.1871 67.8933 62.7629 68.6803 61.2409H73.9204C73.0627 62.3103 72.1297 63.3175 71.126 64.2626ZM75.3435 59.3107H69.6039C71.4888 55.02 72.6151 50.0724 72.7376 44.7922H80.0982C79.9145 50.1212 78.1945 55.091 75.3435 59.3107ZM80.0982 42.8622H72.7376C72.6151 37.582 71.4888 32.6301 69.6039 28.3394H75.3435C78.1945 32.5636 79.9145 37.5288 80.0982 42.8622ZM68.6803 26.4135C67.8933 24.8916 67.0027 23.4628 66.0272 22.1538C64.5476 20.1704 62.8653 18.4578 61.0275 17.0645C64.835 18.5288 68.2656 20.694 71.126 23.3918C72.1297 24.3369 73.0627 25.3487 73.9204 26.4181H68.6803V26.4135Z" fill="white"/>
<path d="M1331.8 29.6508C1329.33 23.989 1323.43 20 1316.53 20C1309.63 20 1303.72 23.989 1301.25 29.6508C1295.24 31.9715 1291 37.5357 1291 44.0317C1291 50.5277 1295.24 56.092 1301.25 58.4126C1303.71 64.0745 1309.62 68.0635 1316.53 68.0635C1323.43 68.0635 1329.33 64.0745 1331.8 58.4126C1337.81 56.092 1342.04 50.5277 1342.05 44.0317C1342.05 37.5357 1337.81 31.9715 1331.8 29.6508ZM1330.93 35.5435C1330.93 38.0239 1330.22 40.3444 1328.99 42.3411C1327.31 40.5219 1325.19 39.071 1322.78 38.1436C1321.8 35.8762 1320.25 33.8795 1318.32 32.2999C1320.44 31.1374 1322.91 30.4717 1325.54 30.4717C1327.16 30.4717 1328.72 30.7291 1330.17 31.1906C1330.66 32.5573 1330.93 34.0215 1330.93 35.5435H1330.93ZM1323.63 40.7305C1324.76 41.334 1325.8 42.0748 1326.71 42.9357C1327.08 43.2818 1327.43 43.65 1327.75 44.0361C1327.43 44.4177 1327.08 44.7862 1326.71 45.1367C1325.8 45.9975 1324.76 46.7339 1323.63 47.3418C1323.88 46.2769 1324.01 45.1721 1324.01 44.0406C1324.01 42.9047 1323.88 41.8043 1323.63 40.7394V40.7305ZM1316.52 49.1078C1314.9 49.1078 1313.35 48.8504 1311.89 48.3889C1311.4 47.0223 1311.13 45.558 1311.13 44.0361C1311.13 42.5097 1311.4 41.05 1311.89 39.6834C1313.35 39.2219 1314.9 38.9645 1316.52 38.9645C1318.14 38.9645 1319.69 39.2219 1321.14 39.6834C1321.63 41.05 1321.91 42.5141 1321.91 44.0361C1321.91 45.5624 1321.64 47.0223 1321.14 48.3889C1319.69 48.8504 1318.14 49.1078 1316.52 49.1078ZM1320.03 50.7319C1319.39 51.7924 1318.6 52.7684 1317.69 53.6293C1317.32 53.9754 1316.93 54.3037 1316.52 54.6099C1316.12 54.3037 1315.73 53.9754 1315.35 53.6293C1314.44 52.7684 1313.65 51.7968 1313.01 50.7319C1314.14 50.9626 1315.32 51.0868 1316.52 51.0868C1317.73 51.0868 1318.9 50.9626 1320.03 50.7319ZM1313.02 37.345C1313.66 36.2845 1314.44 35.3082 1315.36 34.4474C1315.73 34.1013 1316.12 33.773 1316.53 33.4668C1316.93 33.7774 1317.32 34.1013 1317.7 34.4474C1318.61 35.3082 1319.39 36.2801 1320.04 37.345C1318.91 37.1143 1317.73 36.9899 1316.53 36.9899C1315.32 36.9899 1314.15 37.1143 1313.02 37.345ZM1306.34 25.9592C1308.95 23.5054 1312.54 21.9878 1316.53 21.9878C1320.51 21.9878 1324.1 23.5054 1326.71 25.9592C1327.62 26.82 1328.41 27.7916 1329.05 28.8566C1327.92 28.6258 1326.75 28.5017 1325.54 28.5017C1322.21 28.5017 1319.12 29.4334 1316.53 31.0264C1313.94 29.429 1310.84 28.5017 1307.51 28.5017C1306.3 28.5017 1305.13 28.6258 1304 28.8566C1304.64 27.7961 1305.42 26.82 1306.34 25.9592ZM1302.88 31.1949C1304.33 30.7335 1305.89 30.4763 1307.51 30.4763C1310.14 30.4763 1312.61 31.1461 1314.73 32.3042C1312.79 33.8839 1311.25 35.8808 1310.27 38.1482C1307.86 39.0755 1305.74 40.5265 1304.06 42.3457C1302.83 40.349 1302.12 38.0282 1302.12 35.5478C1302.12 34.0214 1302.39 32.5616 1302.88 31.1949H1302.88ZM1309.41 47.3418C1308.28 46.7384 1307.25 45.9975 1306.33 45.1367C1305.97 44.7906 1305.62 44.4221 1305.29 44.0361C1305.62 43.6545 1305.97 43.2862 1306.33 42.9357C1307.25 42.0748 1308.28 41.3384 1309.41 40.7305C1309.17 41.7954 1309.03 42.9003 1309.03 44.0317C1309.03 45.1632 1309.17 46.268 1309.41 47.333V47.3418ZM1300.39 55.8346C1299.27 55.2312 1298.23 54.4901 1297.32 53.6293C1294.71 51.1711 1293.1 47.7856 1293.1 44.0406C1293.1 40.2912 1294.71 36.9056 1297.32 34.4474C1298.23 33.591 1299.27 32.8501 1300.39 32.2466C1300.15 33.3115 1300.01 34.4164 1300.01 35.5478C1300.01 38.6805 1301 41.5957 1302.7 44.0406C1301 46.4811 1300.01 49.3963 1300.01 52.5334C1300.01 53.6649 1300.15 54.7697 1300.39 55.8346ZM1302.12 52.5334C1302.12 50.053 1302.82 47.7323 1304.06 45.7355C1305.74 47.5548 1307.86 49.0057 1310.26 49.9331C1311.25 52.2005 1312.79 54.1974 1314.72 55.777C1312.6 56.9395 1310.14 57.6049 1307.5 57.6049C1305.88 57.6049 1304.33 57.3477 1302.88 56.8863C1302.39 55.5196 1302.11 54.0553 1302.11 52.5334H1302.12ZM1326.71 62.122C1324.09 64.5802 1320.5 66.0934 1316.52 66.0934C1312.54 66.0934 1308.94 64.5758 1306.33 62.122C1305.42 61.2612 1304.63 60.2896 1303.99 59.2247C1305.12 59.4554 1306.3 59.5796 1307.5 59.5796C1310.83 59.5796 1313.93 58.6477 1316.52 57.0503C1319.11 58.6477 1322.21 59.5751 1325.54 59.5796C1326.74 59.5796 1327.92 59.4554 1329.05 59.2247C1328.41 60.2852 1327.62 61.2612 1326.71 62.122ZM1330.16 56.8863C1328.71 57.3477 1327.16 57.6049 1325.54 57.6049C1322.9 57.6049 1320.44 56.9351 1318.32 55.777C1320.25 54.1974 1321.79 52.2005 1322.78 49.9331C1325.18 49.0057 1327.3 47.5548 1328.98 45.7355C1330.22 47.7367 1330.92 50.053 1330.92 52.5334C1330.92 54.0598 1330.65 55.5196 1330.16 56.8863H1330.16ZM1335.72 53.6338C1334.81 54.4946 1333.78 55.2311 1332.65 55.839C1332.9 54.774 1333.03 53.6692 1333.03 52.5377C1333.03 49.4051 1332.04 46.4854 1330.34 44.0449C1332.04 41.6045 1333.03 38.6894 1333.03 35.5524C1333.03 34.4165 1332.9 33.3161 1332.65 32.2512C1333.78 32.8546 1334.82 33.5956 1335.72 34.452C1338.33 36.9102 1339.94 40.2955 1339.94 44.0449C1339.94 47.7943 1338.33 51.1801 1335.72 53.6338Z" fill="white"/>
<rect x="0.5" y="0.5" width="1357" height="86" rx="43" stroke="white"/>
</svg>
