<svg width="49" height="48" viewBox="0 0 49 48" fill="none" xmlns="http://www.w3.org/2000/svg">
<g clip-path="url(#clip0_451_10003)">
<path d="M44.9469 0H4.04375C2.08437 0 0.5 1.54688 0.5 3.45938V44.5312C0.5 46.4437 2.08437 48 4.04375 48H44.9469C46.9062 48 48.5 46.4438 48.5 44.5406V3.45938C48.5 1.54688 46.9062 0 44.9469 0ZM14.7406 40.9031H7.61563V17.9906H14.7406V40.9031ZM11.1781 14.8688C8.89062 14.8688 7.04375 13.0219 7.04375 10.7437C7.04375 8.46562 8.89062 6.61875 11.1781 6.61875C13.4563 6.61875 15.3031 8.46562 15.3031 10.7437C15.3031 13.0125 13.4563 14.8688 11.1781 14.8688ZM41.4031 40.9031H34.2875V29.7656C34.2875 27.1125 34.2406 23.6906 30.5844 23.6906C26.8812 23.6906 26.3187 26.5875 26.3187 29.5781V40.9031H19.2125V17.9906H26.0375V21.1219H26.1312C27.0781 19.3219 29.4031 17.4188 32.8625 17.4188C40.0719 17.4188 41.4031 22.1625 41.4031 28.3313V40.9031Z" fill="#D3D3D3"/>
</g>
<defs>
<clipPath id="clip0_451_10003">
<rect width="48" height="48" fill="white" transform="translate(0.5)"/>
</clipPath>
</defs>
</svg>
