<svg width="48" height="48" viewBox="0 0 48 48" fill="none" xmlns="http://www.w3.org/2000/svg">
<path d="M47.9991 23.6552C47.9991 30.0138 46.9334 35.1717 45.6184 35.1717C44.3035 35.1717 43.2383 30.0152 43.2383 23.6552C43.2383 17.2952 44.3039 12.1387 45.6184 12.1387C46.9329 12.1387 47.9991 17.2947 47.9991 23.6552Z" fill="#D3D3D3"/>
<path d="M41.9244 23.6563C41.9244 30.7549 38.8939 36.5118 35.1556 36.5118C31.4172 36.5118 28.3867 30.7549 28.3867 23.6563C28.3867 16.5577 31.4168 10.8008 35.1551 10.8008C38.8934 10.8008 41.9239 16.5558 41.9239 23.6563" fill="#D3D3D3"/>
<path d="M27.0749 23.6554C27.0749 31.1968 21.0139 37.3103 13.5377 37.3103C6.06146 37.3103 0 31.1955 0 23.6554C0 16.1153 6.061 10 13.5377 10C21.0143 10 27.0749 16.114 27.0749 23.6554Z" fill="#D3D3D3"/>
</svg>
