<svg width="49" height="48" viewBox="0 0 49 48" fill="none" xmlns="http://www.w3.org/2000/svg">
<g clip-path="url(#clip0_451_10005)">
<path d="M48.0219 14.3996C48.0219 14.3996 47.5531 11.0902 46.1094 9.63711C44.2812 7.72461 42.2375 7.71523 41.3 7.60273C34.5875 7.11523 24.5094 7.11523 24.5094 7.11523H24.4906C24.4906 7.11523 14.4125 7.11523 7.7 7.60273C6.7625 7.71523 4.71875 7.72461 2.89062 9.63711C1.44688 11.0902 0.9875 14.3996 0.9875 14.3996C0.9875 14.3996 0.5 18.2902 0.5 22.1715V25.809C0.5 29.6902 0.978125 33.5809 0.978125 33.5809C0.978125 33.5809 1.44687 36.8902 2.88125 38.3434C4.70937 40.2559 7.10938 40.1902 8.17813 40.3965C12.0219 40.7621 24.5 40.8746 24.5 40.8746C24.5 40.8746 34.5875 40.8559 41.3 40.3777C42.2375 40.2652 44.2812 40.2559 46.1094 38.3434C47.5531 36.8902 48.0219 33.5809 48.0219 33.5809C48.0219 33.5809 48.5 29.6996 48.5 25.809V22.1715C48.5 18.2902 48.0219 14.3996 48.0219 14.3996ZM19.5406 30.2246V16.734L32.5062 23.5027L19.5406 30.2246Z" fill="#D3D3D3"/>
</g>
<defs>
<clipPath id="clip0_451_10005">
<rect width="48" height="48" fill="white" transform="translate(0.5)"/>
</clipPath>
</defs>
</svg>
