<svg width="113" height="58" viewBox="0 0 113 58" fill="none" xmlns="http://www.w3.org/2000/svg">
<path d="M17.7271 55.7962L17.7271 31.2038L110.799 31.2038C112.013 31.2038 113 30.2156 113 29C113 27.7845 112.018 26.7963 110.799 26.7963L17.7221 26.7963L17.7221 2.20382C17.7221 0.98828 16.74 -4.20766e-06 15.5208 -4.26095e-06C14.3017 -4.31424e-06 13.3195 0.98828 13.3195 2.20382L13.3195 26.7963L2.20129 26.7963C0.987113 26.7963 -8.84389e-06 27.7845 -8.89703e-06 29C-8.95016e-06 30.2156 0.987113 31.2038 2.20128 31.2038L13.3195 31.2038L13.3195 55.7962C13.3195 57.0118 14.3067 58 15.5208 58C16.735 58 17.7221 57.0118 17.7221 55.7962L17.7271 55.7962Z" fill="white"/>
</svg>
