<svg width="58" height="194" viewBox="0 0 58 194" fill="none" xmlns="http://www.w3.org/2000/svg">
<path d="M55.4213 94.7394H30.9941V2.18897C30.9941 0.981602 30.0125 0 28.8052 0C27.5978 0 26.6162 0.976694 26.6162 2.18897V94.7443H2.18901C0.981643 94.7443 0 95.721 0 96.9333C0 98.1455 0.981643 99.1222 2.18901 99.1222H26.6162V191.678C26.6162 192.885 27.5978 193.867 28.8052 193.867C30.0125 193.867 30.9941 192.885 30.9941 191.678V99.1222H55.4213C56.6287 99.1222 57.6103 98.1406 57.6103 96.9333C57.6103 95.7259 56.6287 94.7443 55.4213 94.7443V94.7394Z" fill="white"/>
</svg>
