<svg width="61" height="60" viewBox="0 0 61 60" fill="none" xmlns="http://www.w3.org/2000/svg">
<path d="M9.46605 50.9729C9.33336 50.9731 9.202 50.9463 9.08002 50.8941C8.95804 50.8418 8.848 50.7652 8.75663 50.669C3.44462 45.1 0.48691 37.6956 0.500044 29.9993C0.500044 13.458 13.9581 -0.000244141 30.4992 -0.000244141C30.759 -0.000244141 31.0082 0.102987 31.192 0.286739C31.3757 0.470492 31.479 0.719714 31.479 0.979579C31.479 1.23944 31.3757 1.48867 31.192 1.67242C31.0082 1.85617 30.759 1.9594 30.4992 1.9594C15.0383 1.9594 2.45966 14.5382 2.45966 29.9993C2.4469 37.1928 5.21146 44.1136 10.1769 49.3184C10.3108 49.4567 10.4008 49.6315 10.4356 49.8208C10.4705 50.0102 10.4485 50.2056 10.3725 50.3824C10.2965 50.5593 10.1699 50.7097 10.0086 50.8148C9.84731 50.9198 9.65854 50.9748 9.46605 50.9729V50.9729Z" fill="white"/>
<path d="M30.5007 60C27.5673 60.0024 24.6494 59.575 21.8399 58.7317C21.591 58.6566 21.382 58.4858 21.259 58.2567C21.1361 58.0276 21.1091 57.759 21.1842 57.51C21.2592 57.2611 21.4301 57.0521 21.6592 56.9291C21.8883 56.8061 22.1568 56.7792 22.4058 56.8542C25.0316 57.6432 27.7589 58.0428 30.5007 58.0404C45.9616 58.0404 58.5402 45.4615 58.5402 30.0004C58.549 26.0357 57.7107 22.1149 56.0816 18.5004C56.0292 18.3831 56.0004 18.2566 55.9968 18.1281C55.9933 17.9996 56.0151 17.8717 56.061 17.7517C56.1068 17.6317 56.1759 17.5218 56.2642 17.4285C56.3526 17.3351 56.4584 17.2601 56.5757 17.2077C56.693 17.1552 56.8196 17.1264 56.948 17.1229C57.0765 17.1193 57.2044 17.1411 57.3244 17.187C57.4444 17.2329 57.5543 17.3019 57.6476 17.3903C57.741 17.4786 57.816 17.5844 57.8684 17.7018C59.6124 21.5688 60.5096 25.7639 60.4998 30.006C60.4998 46.5431 47.0432 60 30.5007 60ZM53.9157 13.8396C53.7616 13.8402 53.6094 13.8043 53.4718 13.7348C53.3342 13.6652 53.2151 13.5641 53.1241 13.4396C52.8649 13.0856 52.5931 12.7329 52.3157 12.3887C52.2349 12.2886 52.1746 12.1735 52.1383 12.0501C52.1019 11.9267 52.0902 11.7973 52.1039 11.6694C52.1176 11.5414 52.1563 11.4174 52.2179 11.3045C52.2794 11.1915 52.3626 11.0918 52.4628 11.0109C52.665 10.8477 52.9237 10.7715 53.1821 10.7991C53.4404 10.8267 53.6773 10.9558 53.8405 11.158C54.136 11.5245 54.4273 11.9023 54.7046 12.2814C54.813 12.4269 54.8786 12.5998 54.8941 12.7805C54.9096 12.9613 54.8744 13.1428 54.7925 13.3047C54.7105 13.4665 54.5851 13.6023 54.4302 13.6968C54.2753 13.7913 54.0972 13.8408 53.9157 13.8396V13.8396ZM48.8007 8.45825C48.5756 8.45825 48.3575 8.38045 48.1832 8.23803C47.8418 7.95927 47.4864 7.68052 47.1351 7.42546C47.032 7.34904 46.9449 7.25306 46.8789 7.14299C46.8128 7.03292 46.7691 6.91092 46.7502 6.78396C46.7313 6.65699 46.7376 6.52755 46.7688 6.40302C46.7999 6.27849 46.8552 6.16131 46.9317 6.05817C47.0081 5.95503 47.1041 5.86795 47.2141 5.80191C47.3242 5.73586 47.4462 5.69214 47.5731 5.67325C47.7001 5.65435 47.8296 5.66065 47.9541 5.69178C48.0786 5.72291 48.1958 5.77826 48.2989 5.85468C48.678 6.13343 49.0543 6.42612 49.4139 6.723C49.5738 6.84941 49.69 7.02272 49.7464 7.21858C49.8027 7.41444 49.7963 7.62303 49.728 7.81507C49.6598 8.0071 49.5331 8.17293 49.3658 8.28929C49.1984 8.40564 48.9989 8.46668 48.7951 8.46382L48.8007 8.45825Z" fill="white"/>
<path d="M22.4303 29.1292C20.2002 29.1292 17.9006 28.6182 15.5312 27.5961C15.3948 27.5372 15.2737 27.4479 15.1771 27.3351C15.0805 27.2223 15.0109 27.089 14.9737 26.9452C14.8928 26.6372 13.0531 19.3449 17.9103 12.9057C22.3341 7.0421 30.7328 3.93677 42.8585 3.67753C43.007 3.67626 43.154 3.70828 43.2886 3.77122C43.4232 3.83417 43.5419 3.92646 43.6362 4.0413C43.7306 4.15885 43.7964 4.29666 43.8286 4.44393C43.8607 4.5912 43.8583 4.74392 43.8216 4.89011C43.6432 5.60233 39.3267 22.4182 28.7913 27.6212C26.8172 28.6119 24.6391 29.1282 22.4303 29.1292V29.1292ZM16.7744 25.9877C20.7605 27.5919 24.5083 27.5515 27.9244 25.8664C36.0681 21.8412 40.3595 9.6373 41.5609 5.67202C30.8025 6.10269 23.3808 8.91951 19.4908 14.0584C15.8503 18.8655 16.4873 24.382 16.7744 25.9849V25.9877Z" fill="white"/>
<path d="M15.5511 55.5914C15.0968 55.5914 14.6995 55.675 14.5964 55.2276C11.6598 42.3979 12.1127 32.2764 15.94 24.7514C18.8669 19.0034 22.7122 17.2557 22.8739 17.179C23.3645 16.9504 23.9485 17.2124 24.1771 17.7031C24.287 17.9416 24.2994 18.2137 24.2116 18.4613C24.1239 18.7089 23.943 18.9124 23.7074 19.0285C23.6447 19.0592 20.2035 20.7791 17.6083 25.9807C15.409 30.392 13.4271 38.1985 15.6571 50.9501C16.1761 49.3652 16.8096 47.8201 17.5526 46.327C19.7589 41.8878 24.0251 35.9057 31.7939 32.6164C31.9129 32.5665 32.0405 32.5404 32.1696 32.5398C32.2986 32.5392 32.4265 32.5639 32.546 32.6127C32.6654 32.6615 32.7741 32.7334 32.8658 32.8242C32.9575 32.915 33.0304 33.0229 33.0804 33.1419C33.1303 33.2609 33.1564 33.3885 33.157 33.5175C33.1576 33.6466 33.1329 33.7745 33.0841 33.8939C33.0353 34.0134 32.9634 34.1221 32.8726 34.2138C32.7819 34.3055 32.6739 34.3784 32.5549 34.4283C18.7289 40.2822 16.5449 54.9879 16.5268 55.1398C16.464 55.6095 16.0738 55.5914 15.6013 55.5914H15.5511Z" fill="white"/>
<path d="M34.4345 41.3982C31.3682 41.3982 28.38 40.2706 25.5144 38.028C25.3939 37.9343 25.2971 37.8136 25.2317 37.6756C25.1664 37.5376 25.1343 37.3862 25.1381 37.2336C25.1381 36.9869 25.3346 31.1567 30.4135 27.3894C35.2177 23.8366 42.5935 23.399 52.3497 26.1155C52.4935 26.1544 52.6263 26.2258 52.7382 26.3241C52.8501 26.4224 52.938 26.5449 52.9952 26.6824C53.0523 26.8199 53.0773 26.9687 53.0681 27.1173C53.0589 27.2659 53.0158 27.4105 52.9421 27.5399C52.6717 28.0194 46.2312 39.2978 36.9683 41.1473C36.134 41.3138 35.2853 41.3979 34.4345 41.3982V41.3982ZM27.1382 36.7987C30.1905 39.0483 33.3654 39.865 36.5836 39.2211C43.3796 37.8636 48.7385 30.4752 50.5616 27.6625C42.0597 25.4896 35.6749 25.9259 31.5814 28.9629C28.0441 31.5902 27.2943 35.4607 27.1382 36.7987Z" fill="white"/>
</svg>
