<svg width="30" height="412" viewBox="0 0 30 412" fill="none" xmlns="http://www.w3.org/2000/svg">
<line x1="15" y1="213.834" x2="15" y2="197.89" stroke="white" stroke-width="2"/>
<line y1="206" x2="30" y2="206" stroke="white" stroke-width="2"/>
<line x1="10" y1="1" x2="20" y2="1" stroke="#747474" stroke-width="2"/>
<line x1="10" y1="46.5566" x2="20" y2="46.5566" stroke="#747474" stroke-width="2"/>
<line x1="10" y1="92.1094" x2="20" y2="92.1094" stroke="#747474" stroke-width="2"/>
<line x1="10" y1="137.666" x2="20" y2="137.666" stroke="#747474" stroke-width="2"/>
<line x1="10" y1="183.223" x2="20" y2="183.223" stroke="#747474" stroke-width="2"/>
<line x1="10" y1="228.777" x2="20" y2="228.777" stroke="#747474" stroke-width="2"/>
<line x1="10" y1="274.334" x2="20" y2="274.334" stroke="#747474" stroke-width="2"/>
<line x1="10" y1="319.891" x2="20" y2="319.891" stroke="#747474" stroke-width="2"/>
<line x1="10" y1="365.443" x2="20" y2="365.443" stroke="#747474" stroke-width="2"/>
<line x1="10" y1="411" x2="20" y2="411" stroke="#747474" stroke-width="2"/>
<line x1="10" y1="23.7773" x2="20" y2="23.7773" stroke="#747474" stroke-width="2"/>
<line x1="10" y1="69.334" x2="20" y2="69.334" stroke="#747474" stroke-width="2"/>
<line x1="10" y1="114.891" x2="20" y2="114.891" stroke="#747474" stroke-width="2"/>
<line x1="10" y1="160.443" x2="20" y2="160.443" stroke="#747474" stroke-width="2"/>
<line x1="10" y1="251.557" x2="20" y2="251.557" stroke="#747474" stroke-width="2"/>
<line x1="10" y1="297.109" x2="20" y2="297.109" stroke="#747474" stroke-width="2"/>
<line x1="10" y1="342.666" x2="20" y2="342.666" stroke="#747474" stroke-width="2"/>
<line x1="10" y1="388.223" x2="20" y2="388.223" stroke="#747474" stroke-width="2"/>
</svg>
