<svg width="1029" height="512" viewBox="0 0 1029 512" fill="none" xmlns="http://www.w3.org/2000/svg">
<path d="M994.528 110.637C996.829 118.117 995.848 126.453 991.8 135.507C987.75 144.564 980.644 154.31 970.745 164.574C950.947 185.1 920.055 207.621 880.394 230.761C801.08 277.036 686.796 325.729 556.342 365.861C425.888 405.994 303.995 429.957 212.385 436.263C166.576 439.417 128.368 438.154 100.456 432.304C86.4995 429.379 75.1433 425.313 66.7033 420.098C58.2669 414.885 52.7695 408.542 50.4684 401.062C48.1673 393.582 49.1487 385.245 53.1964 376.192C57.2458 367.135 64.3528 357.389 74.2517 347.125C94.0495 326.598 124.941 304.077 164.602 280.938C243.916 234.662 358.201 185.969 488.655 145.837C619.109 105.705 741.001 81.742 832.611 75.4352C878.42 72.2815 916.629 73.5449 944.541 79.3946C958.497 82.3194 969.853 86.3858 978.293 91.6008C986.729 96.8135 992.227 103.157 994.528 110.637Z" stroke="white"/>
<g filter="url(#filter0_d_1_15006)">
<path d="M164.62 311H147.82V228.12H115.06V213H197.24V228.12H164.62V311ZM222.631 216.254C222.631 215.342 222.927 214.568 223.52 213.93C224.158 213.292 224.932 212.973 225.844 212.973H276.566C277.478 212.973 278.23 213.292 278.822 213.93C279.46 214.568 279.779 215.342 279.779 216.254V223.773C279.779 224.685 280.076 225.46 280.668 226.098C281.306 226.69 282.081 226.986 282.992 226.986H290.854C291.765 226.986 292.517 227.305 293.109 227.943C293.747 228.536 294.066 229.288 294.066 230.199V241H279.779V230.199C279.779 229.288 279.46 228.536 278.822 227.943C278.23 227.305 277.478 226.986 276.566 226.986H225.844C224.932 226.986 224.158 227.305 223.52 227.943C222.927 228.536 222.631 229.288 222.631 230.199V251.801C222.631 252.712 222.927 253.487 223.52 254.125C224.158 254.717 224.932 255.014 225.844 255.014H265.492V269.027H225.844C224.932 269.027 224.158 269.346 223.52 269.984C222.927 270.577 222.631 271.329 222.631 272.24V293.773C222.631 294.685 222.927 295.46 223.52 296.098C224.158 296.69 224.932 296.986 225.844 296.986H276.566C277.478 296.986 278.23 296.69 278.822 296.098C279.46 295.46 279.779 294.685 279.779 293.773V282.973H294.066V293.773C294.066 294.685 293.747 295.46 293.109 296.098C292.517 296.69 291.765 296.986 290.854 296.986H282.992C282.081 296.986 281.306 297.305 280.668 297.943C280.076 298.536 279.779 299.288 279.779 300.199V307.787C279.779 308.699 279.46 309.473 278.822 310.111C278.23 310.704 277.478 311 276.566 311H225.844C224.932 311 224.158 310.704 223.52 310.111C222.927 309.473 222.631 308.699 222.631 307.787V300.199C222.631 299.288 222.312 298.536 221.674 297.943C221.081 297.305 220.329 296.986 219.418 296.986H211.625C210.714 296.986 209.939 296.69 209.301 296.098C208.663 295.46 208.344 294.685 208.344 293.773V272.24C208.344 271.329 208.663 270.577 209.301 269.984C209.939 269.346 210.714 269.027 211.625 269.027H219.418C220.329 269.027 221.081 268.708 221.674 268.07C222.312 267.432 222.631 266.658 222.631 265.746V258.227C222.631 257.315 222.312 256.563 221.674 255.971C221.081 255.333 220.329 255.014 219.418 255.014H211.625C210.714 255.014 209.939 254.717 209.301 254.125C208.663 253.487 208.344 252.712 208.344 251.801V230.199C208.344 229.288 208.663 228.536 209.301 227.943C209.939 227.305 210.714 226.986 211.625 226.986H219.418C220.329 226.986 221.081 226.69 221.674 226.098C222.312 225.46 222.631 224.685 222.631 223.773V216.254ZM356.196 313.1C326.096 313.1 306.916 292.38 306.916 261.72C306.916 232.04 325.676 210.9 356.196 210.9C381.676 210.9 399.176 225.74 403.376 250.8H386.156C383.076 235.4 371.736 226.02 356.196 226.02C336.456 226.02 324.136 239.88 324.136 261.72C324.136 284.12 336.456 297.84 356.196 297.84C372.016 297.84 383.076 288.74 386.156 273.2H403.376C398.896 298.68 381.816 313.1 356.196 313.1ZM416.293 272.24C416.293 271.329 416.612 270.577 417.25 269.984C417.888 269.346 418.663 269.027 419.574 269.027H427.367C428.279 269.027 429.031 268.708 429.623 268.07C430.261 267.432 430.58 266.658 430.58 265.746V258.227C430.58 257.315 430.261 256.563 429.623 255.971C429.031 255.333 428.279 255.014 427.367 255.014H419.574C418.663 255.014 417.888 254.717 417.25 254.125C416.612 253.487 416.293 252.712 416.293 251.801V212.973H430.58V251.801C430.58 252.712 430.876 253.487 431.469 254.125C432.107 254.717 432.882 255.014 433.793 255.014H484.516C485.427 255.014 486.179 254.717 486.771 254.125C487.41 253.487 487.729 252.712 487.729 251.801V212.973H502.016V251.801C502.016 252.712 501.697 253.487 501.059 254.125C500.466 254.717 499.714 255.014 498.803 255.014H490.941C490.03 255.014 489.255 255.333 488.617 255.971C488.025 256.563 487.729 257.315 487.729 258.227V265.746C487.729 266.658 488.025 267.432 488.617 268.07C489.255 268.708 490.03 269.027 490.941 269.027H498.803C499.714 269.027 500.466 269.346 501.059 269.984C501.697 270.577 502.016 271.329 502.016 272.24V311H487.729V272.24C487.729 271.329 487.41 270.577 486.771 269.984C486.179 269.346 485.427 269.027 484.516 269.027H433.793C432.882 269.027 432.107 269.346 431.469 269.984C430.876 270.577 430.58 271.329 430.58 272.24V311H416.293V272.24ZM536.145 311H519.345V213H537.545L586.125 286.78V213H602.925V311H584.725L536.145 237.22V311ZM640.188 311H623.388V213H640.188V311ZM739.838 226.986C740.749 226.986 741.501 227.305 742.094 227.943C742.732 228.536 743.051 229.288 743.051 230.199V241H728.764V230.199C728.764 229.288 728.445 228.536 727.807 227.943C727.214 227.305 726.462 226.986 725.551 226.986H674.828C673.917 226.986 673.142 227.305 672.504 227.943C671.911 228.536 671.615 229.288 671.615 230.199V293.773C671.615 294.685 671.911 295.46 672.504 296.098C673.142 296.69 673.917 296.986 674.828 296.986H725.551C726.462 296.986 727.214 296.69 727.807 296.098C728.445 295.46 728.764 294.685 728.764 293.773V282.973H743.051V293.773C743.051 294.685 742.732 295.46 742.094 296.098C741.501 296.69 740.749 296.986 739.838 296.986H731.977C731.065 296.986 730.29 297.305 729.652 297.943C729.06 298.536 728.764 299.288 728.764 300.199V307.787C728.764 308.699 728.445 309.473 727.807 310.111C727.214 310.704 726.462 311 725.551 311H674.828C673.917 311 673.142 310.704 672.504 310.111C671.911 309.473 671.615 308.699 671.615 307.787V300.199C671.615 299.288 671.296 298.536 670.658 297.943C670.066 297.305 669.314 296.986 668.402 296.986H660.609C659.698 296.986 658.923 296.69 658.285 296.098C657.647 295.46 657.328 294.685 657.328 293.773V230.199C657.328 229.288 657.647 228.536 658.285 227.943C658.923 227.305 659.698 226.986 660.609 226.986H668.402C669.314 226.986 670.066 226.69 670.658 226.098C671.296 225.46 671.615 224.685 671.615 223.773V216.254C671.615 215.342 671.911 214.568 672.504 213.93C673.142 213.292 673.917 212.973 674.828 212.973H725.551C726.462 212.973 727.214 213.292 727.807 213.93C728.445 214.568 728.764 215.342 728.764 216.254V223.773C728.764 224.685 729.06 225.46 729.652 226.098C730.29 226.69 731.065 226.986 731.977 226.986H739.838ZM777.18 311H760.38V213H777.18V253.32H830.94V213H847.74V311H830.94V268.44H777.18V311ZM937.838 311H867.978V213H936.578V228.12H884.638V253.32H931.678V268.02H884.638V295.88H937.838V311Z" fill="white"/>
</g>
<path d="M164.62 311H147.82V228.12H115.06V213H197.24V228.12H164.62V311ZM356.196 313.1C326.096 313.1 306.916 292.38 306.916 261.72C306.916 232.04 325.676 210.9 356.196 210.9C381.676 210.9 399.176 225.74 403.376 250.8H386.156C383.076 235.4 371.736 226.02 356.196 226.02C336.456 226.02 324.136 239.88 324.136 261.72C324.136 284.12 336.456 297.84 356.196 297.84C372.016 297.84 383.076 288.74 386.156 273.2H403.376C398.896 298.68 381.816 313.1 356.196 313.1ZM536.145 311H519.345V213H537.545L586.125 286.78V213H602.925V311H584.725L536.145 237.22V311ZM640.188 311H623.388V213H640.188V311ZM777.18 311H760.38V213H777.18V253.32H830.94V213H847.74V311H830.94V268.44H777.18V311ZM937.838 311H867.978V213H936.578V228.12H884.638V253.32H931.678V268.02H884.638V295.88H937.838V311Z" fill="url(#paint0_linear_1_15006)"/>
<path d="M222.631 216.254C222.631 215.342 222.927 214.568 223.52 213.93C224.158 213.292 224.932 212.973 225.844 212.973H276.566C277.478 212.973 278.23 213.292 278.822 213.93C279.46 214.568 279.779 215.342 279.779 216.254V223.773C279.779 224.685 280.076 225.46 280.668 226.098C281.306 226.69 282.081 226.986 282.992 226.986H290.854C291.765 226.986 292.517 227.305 293.109 227.943C293.747 228.536 294.066 229.288 294.066 230.199V241H279.779V230.199C279.779 229.288 279.46 228.536 278.822 227.943C278.23 227.305 277.478 226.986 276.566 226.986H225.844C224.932 226.986 224.158 227.305 223.52 227.943C222.927 228.536 222.631 229.288 222.631 230.199V251.801C222.631 252.712 222.927 253.487 223.52 254.125C224.158 254.717 224.932 255.014 225.844 255.014H265.492V269.027H225.844C224.932 269.027 224.158 269.346 223.52 269.984C222.927 270.577 222.631 271.329 222.631 272.24V293.773C222.631 294.685 222.927 295.46 223.52 296.098C224.158 296.69 224.932 296.986 225.844 296.986H276.566C277.478 296.986 278.23 296.69 278.822 296.098C279.46 295.46 279.779 294.685 279.779 293.773V282.973H294.066V293.773C294.066 294.685 293.747 295.46 293.109 296.098C292.517 296.69 291.765 296.986 290.854 296.986H282.992C282.081 296.986 281.306 297.305 280.668 297.943C280.076 298.536 279.779 299.288 279.779 300.199V307.787C279.779 308.699 279.46 309.473 278.822 310.111C278.23 310.704 277.478 311 276.566 311H225.844C224.932 311 224.158 310.704 223.52 310.111C222.927 309.473 222.631 308.699 222.631 307.787V300.199C222.631 299.288 222.312 298.536 221.674 297.943C221.081 297.305 220.329 296.986 219.418 296.986H211.625C210.714 296.986 209.939 296.69 209.301 296.098C208.663 295.46 208.344 294.685 208.344 293.773V272.24C208.344 271.329 208.663 270.577 209.301 269.984C209.939 269.346 210.714 269.027 211.625 269.027H219.418C220.329 269.027 221.081 268.708 221.674 268.07C222.312 267.432 222.631 266.658 222.631 265.746V258.227C222.631 257.315 222.312 256.563 221.674 255.971C221.081 255.333 220.329 255.014 219.418 255.014H211.625C210.714 255.014 209.939 254.717 209.301 254.125C208.663 253.487 208.344 252.712 208.344 251.801V230.199C208.344 229.288 208.663 228.536 209.301 227.943C209.939 227.305 210.714 226.986 211.625 226.986H219.418C220.329 226.986 221.081 226.69 221.674 226.098C222.312 225.46 222.631 224.685 222.631 223.773V216.254ZM416.293 272.24C416.293 271.329 416.612 270.577 417.25 269.984C417.888 269.346 418.663 269.027 419.574 269.027H427.367C428.279 269.027 429.031 268.708 429.623 268.07C430.261 267.432 430.58 266.658 430.58 265.746V258.227C430.58 257.315 430.261 256.563 429.623 255.971C429.031 255.333 428.279 255.014 427.367 255.014H419.574C418.663 255.014 417.888 254.717 417.25 254.125C416.612 253.487 416.293 252.712 416.293 251.801V212.973H430.58V251.801C430.58 252.712 430.876 253.487 431.469 254.125C432.107 254.717 432.882 255.014 433.793 255.014H484.516C485.427 255.014 486.179 254.717 486.771 254.125C487.41 253.487 487.729 252.712 487.729 251.801V212.973H502.016V251.801C502.016 252.712 501.697 253.487 501.059 254.125C500.466 254.717 499.714 255.014 498.803 255.014H490.941C490.03 255.014 489.255 255.333 488.617 255.971C488.025 256.563 487.729 257.315 487.729 258.227V265.746C487.729 266.658 488.025 267.432 488.617 268.07C489.255 268.708 490.03 269.027 490.941 269.027H498.803C499.714 269.027 500.466 269.346 501.059 269.984C501.697 270.577 502.016 271.329 502.016 272.24V311H487.729V272.24C487.729 271.329 487.41 270.577 486.771 269.984C486.179 269.346 485.427 269.027 484.516 269.027H433.793C432.882 269.027 432.107 269.346 431.469 269.984C430.876 270.577 430.58 271.329 430.58 272.24V311H416.293V272.24ZM739.838 226.986C740.749 226.986 741.501 227.305 742.094 227.943C742.732 228.536 743.051 229.288 743.051 230.199V241H728.764V230.199C728.764 229.288 728.445 228.536 727.807 227.943C727.214 227.305 726.462 226.986 725.551 226.986H674.828C673.917 226.986 673.142 227.305 672.504 227.943C671.911 228.536 671.615 229.288 671.615 230.199V293.773C671.615 294.685 671.911 295.46 672.504 296.098C673.142 296.69 673.917 296.986 674.828 296.986H725.551C726.462 296.986 727.214 296.69 727.807 296.098C728.445 295.46 728.764 294.685 728.764 293.773V282.973H743.051V293.773C743.051 294.685 742.732 295.46 742.094 296.098C741.501 296.69 740.749 296.986 739.838 296.986H731.977C731.065 296.986 730.29 297.305 729.652 297.943C729.06 298.536 728.764 299.288 728.764 300.199V307.787C728.764 308.699 728.445 309.473 727.807 310.111C727.214 310.704 726.462 311 725.551 311H674.828C673.917 311 673.142 310.704 672.504 310.111C671.911 309.473 671.615 308.699 671.615 307.787V300.199C671.615 299.288 671.296 298.536 670.658 297.943C670.066 297.305 669.314 296.986 668.402 296.986H660.609C659.698 296.986 658.923 296.69 658.285 296.098C657.647 295.46 657.328 294.685 657.328 293.773V230.199C657.328 229.288 657.647 228.536 658.285 227.943C658.923 227.305 659.698 226.986 660.609 226.986H668.402C669.314 226.986 670.066 226.69 670.658 226.098C671.296 225.46 671.615 224.685 671.615 223.773V216.254C671.615 215.342 671.911 214.568 672.504 213.93C673.142 213.292 673.917 212.973 674.828 212.973H725.551C726.462 212.973 727.214 213.292 727.807 213.93C728.445 214.568 728.764 215.342 728.764 216.254V223.773C728.764 224.685 729.06 225.46 729.652 226.098C730.29 226.69 731.065 226.986 731.977 226.986H739.838Z" fill="url(#paint1_linear_1_15006)"/>
<g filter="url(#filter1_f_1_15006)">
<path d="M122.326 347.501L89.0033 352.102C78.4101 353.565 70.608 362.755 70.883 373.445L71.5646 399.943L67.5122 373.748C65.8773 363.18 56.5621 355.528 45.8778 355.977L12.2681 357.389L45.5912 352.787C56.1844 351.324 63.9866 342.134 63.7116 331.444L63.0299 304.946L67.0824 331.141C68.7172 341.709 78.0324 349.361 88.7168 348.912L122.326 347.501Z" fill="#A0C0FF"/>
</g>
<path d="M111.707 335.057L87.7315 345.832C77.9776 350.216 73.0755 361.229 76.3465 371.41L82.5114 390.598L73.9519 372.352C69.4103 362.671 58.3188 357.948 48.1921 361.384L23.3003 369.831L47.276 359.055C57.03 354.672 61.9321 343.659 58.6611 333.477L52.4962 314.289L61.0557 332.535C65.5973 342.217 76.6888 346.939 86.8155 343.503L111.707 335.057Z" fill="white"/>
<defs>
<filter id="filter0_d_1_15006" x="111.06" y="206.9" width="834.778" height="114.2" filterUnits="userSpaceOnUse" color-interpolation-filters="sRGB">
<feFlood flood-opacity="0" result="BackgroundImageFix"/>
<feColorMatrix in="SourceAlpha" type="matrix" values="0 0 0 0 0 0 0 0 0 0 0 0 0 0 0 0 0 0 127 0" result="hardAlpha"/>
<feOffset dx="2" dy="2"/>
<feGaussianBlur stdDeviation="3"/>
<feComposite in2="hardAlpha" operator="out"/>
<feColorMatrix type="matrix" values="0 0 0 0 0 0 0 0 0 0 0 0 0 0 0 0 0 0 0.5 0"/>
<feBlend mode="normal" in2="BackgroundImageFix" result="effect1_dropShadow_1_15006"/>
<feBlend mode="normal" in="SourceGraphic" in2="effect1_dropShadow_1_15006" result="shape"/>
</filter>
<filter id="filter1_f_1_15006" x="0.268066" y="292.946" width="134.058" height="118.998" filterUnits="userSpaceOnUse" color-interpolation-filters="sRGB">
<feFlood flood-opacity="0" result="BackgroundImageFix"/>
<feBlend mode="normal" in="SourceGraphic" in2="BackgroundImageFix" result="shape"/>
<feGaussianBlur stdDeviation="6" result="effect1_foregroundBlur_1_15006"/>
</filter>
<linearGradient id="paint0_linear_1_15006" x1="111" y1="164" x2="944" y2="360" gradientUnits="userSpaceOnUse">
<stop stop-color="#1E51A3"/>
<stop offset="0.659375" stop-color="#2A7BEA"/>
<stop offset="0.992708" stop-color="#D3C1C8"/>
</linearGradient>
<linearGradient id="paint1_linear_1_15006" x1="111" y1="164" x2="944" y2="360" gradientUnits="userSpaceOnUse">
<stop stop-color="#402489"/>
<stop offset="1" stop-color="#2685D5"/>
</linearGradient>
</defs>
</svg>
