<svg width="48" height="48" viewBox="0 0 48 48" fill="none" xmlns="http://www.w3.org/2000/svg">
<path d="M15.1003 43.5014C33.2091 43.5014 43.1166 28.4949 43.1166 15.4852C43.1166 15.0633 43.1072 14.6321 43.0884 14.2102C45.0158 12.8164 46.679 11.09 48 9.11206C46.205 9.91066 44.2993 10.4322 42.3478 10.6589C44.4026 9.42728 45.9411 7.49241 46.6781 5.213C44.7451 6.35858 42.6312 7.16669 40.4269 7.60269C38.9417 6.02459 36.978 4.9797 34.8394 4.62957C32.7008 4.27944 30.5064 4.64357 28.5955 5.66566C26.6846 6.68775 25.1636 8.31088 24.2677 10.2841C23.3718 12.2573 23.1509 14.4707 23.6391 16.5821C19.725 16.3856 15.8959 15.3689 12.4 13.5977C8.90405 11.8265 5.81939 9.34034 3.34594 6.3005C2.0888 8.46795 1.70411 11.0328 2.27006 13.4736C2.83601 15.9145 4.31013 18.0484 6.39281 19.4414C4.82926 19.3918 3.29995 18.9708 1.93125 18.2133V18.3352C1.92985 20.6098 2.7162 22.8146 4.15662 24.575C5.59704 26.3354 7.60265 27.5426 9.8325 27.9914C8.38411 28.3877 6.86396 28.4455 5.38969 28.1602C6.01891 30.1163 7.24315 31.8272 8.89154 33.0541C10.5399 34.281 12.5302 34.9627 14.5847 35.0039C11.0968 37.7437 6.78835 39.2297 2.35313 39.2227C1.56657 39.2215 0.780798 39.1733 0 39.0783C4.50571 41.969 9.74706 43.5042 15.1003 43.5014Z" fill="#D3D3D3"/>
</svg>
